<svg xmlns="http://www.w3.org/2000/svg" viewBox="0 0 317.95 242.12"><defs><style>.cls-1{fill:#bcb066;}.cls-2{fill:#fff;}</style></defs><title>Ativo 3</title><g id="Camada_2" data-name="Camada 2"><g id="Camada_1-2" data-name="Camada 1"><path class="cls-1" d="M147,1.05c0,.6.9.8,2,.4s2-.2,2,.4.7,1.1,1.6,1.1,1.2-.5.8-1.2,0-.9,1.6-.5a4.92,4.92,0,0,0,3.7-.5c2.2-1.8,4.4-.2,3.8,2.9-.3,1.6-.2,2.2.1,1.5a2.49,2.49,0,0,1,2-1.2c1.2,0,1.2.4.2,2-1.4,2.2-.3,3.9,1.4,2.2,1.5-1.5,3.2-1.6,2.3-.2-.7,1.1,1.8,4.1,3.2,3.9,3.2-.5,6.3.3,6.3,1.7,0,1.1.6,1.4,2.2.9s2-.4,1.5.9-.2,1.7,1.1,1.5c3.7-.3,5,.2,4.8,1.8s.7,1.8,4,1.8c4.9,0,7.6,2,7.2,5.1-.2,1.3.2,2.4.7,2.5,1.2.2,5.5,5.1,5.5,6.3,0,.5.6.4,1.3-.2.9-.8,1.2-.4,1.4,1.5.1,1.7-.2,2.1-.7,1.3s-1-.8-1.8.5c-.8,1.5-.3,2.4,2.3,4.9a16.33,16.33,0,0,1,4,5.6c.5,1.9.4,2.1-.4,1-.6-.9-1.1-1-1.1-.3s-1,.9-2.2.7c-1.9-.3-1.8-.2.5.9,1.5.7,2.4,1.6,2.1,2s-.1,1.3.6,2.2c1,1.2,1,1.5-.4,1.5-1,0-1.4.5-1,1.1A1.49,1.49,0,0,1,209,59c-2.6,1.6,1.5,4,6.9,4,2.8,0,5.1.4,5.1,1s-1.2,1-2.6,1-2.3.4-1.9,1,1.8,1,3.2,1,2.4.3,2.1.6c-1.1,1,3.1,4.4,5.5,4.5q2.25.15.6.6c-1.8.4-3.3,5.6-1.8,6.1.5.2.9,1.2.9,2.2,0,2.4,1.8,3.6,3.3,2.1,1.7-1.7,2.7-1.3,2.7.9,0,1.4.6,2,1.7,1.8,1.3-.2,1.7.5,1.9,3,.2,3.9-.8,4.7-3.8,3.1-1.9-1-2.5-.8-4.5,1.5-2.8,3.3-3,5.1-.4,3.7,1-.6,3.8-1,6.2-.9a36.47,36.47,0,0,0,7.7-.6c2.2-.6,3.2-.5,3.2.3,0,1.5,4,5.4,4.8,4.7.3-.3,1.4.1,2.4,1.1a8.43,8.43,0,0,0,4.9,1.6c2.8,0,2.9.2,2.3,3.1-.8,3.7-1.3,4.4-2.2,3.1-1.1-1.6-6.1-3.9-6.9-3.2-.3.4.6,1.8,2,3.1,5.8,5.4,1.3,9.3-4.7,4-2.6-2.3-2.8-2.9-1.7-4.6,1.4-2.3.5-4-1-1.8-.8,1.1-1.2,1.2-1.6.2-.9-2.3-2.3-1.2-2.3,1.8,0,2.3.4,3,2,3,2.2,0,2.9,4,.8,4-.8,0-.4.7.6,1.5,1.6,1.2,1.7,1.8.8,2.7s-1.5.8-2.7-.8c-1.4-1.8-1.4-1.6-.9,2.3.5,3.1.3,4.3-.6,4.3-1.7,0-3.9-3-4-5.3a1.77,1.77,0,0,0-2-1.7c-1.3,0-1.8.5-1.4,1.5.4.8,1,1.5,1.6,1.5s.6.5.2,1.1a1.4,1.4,0,0,0,.4,1.8c1.5.9,1.9,4.3.5,4.8-.8.3-1.5-1-1.9-3.6-.3-2.2-1.3-4.2-2-4.5a2.5,2.5,0,0,1-1.4-2.3c0-1.4-.2-1.5-.9-.4a1.71,1.71,0,0,1-2,.7c-.7-.5-1.1.4-1.1,2.6-.1,3-.2,3.1-1.4,1.5-1.8-2.3-2.2-2.2-3.5,1.3-.5,1.6-1.5,3-2,3s-1.1,1.1-1.1,2.5a6.2,6.2,0,0,1-2,4.2c-2.2,1.9-2.7,4.9-.9,5.5.7.2,1.3,1.7,1.5,3.3s1,3.5,1.9,4.1c1.9,1.4,2,3.4,0,3.4-.8,0-1.5.4-1.5,1s1.5,1,3.3,1c4.9.1,11,3.3,14.5,7.8,2.5,3.1,3.3,5.3,3.8,10.1,1.6,15.1-11.3,26-25.8,21.7-15.8-4.6-20-24.3-7.4-35.4,2-1.7,4.1-3.2,4.6-3.2,1.6,0,1.1-2.7-.6-3.4a2.36,2.36,0,0,1-1.2-2.7c.3-1.8-.3-2.2-3.4-2.5-2.1-.1-3.8.1-3.8.6s-.8,1-1.7,1c-1.4,0-1.8-.8-1.8-3.7,0-3.2-.4-3.9-2.2-4.1-2.6-.4-3.1,1.5-.8,2.4.8.4,1.5,1,1.5,1.5s-.7.9-1.5.9-1.5-.5-1.5-1c0-2.1-2.2-.8-4.1,2.5-1.2,1.9-2.7,3.5-3.4,3.5-1.7,0-.4,5.3,1.9,7.5,3.6,3.7,2.6,11.1-1.9,13.5l-2.5,1.4,3.2,1.3c4.4,1.8,6.8,5.1,6.8,9.3,0,7.6-5.2,11-17,11h-8V153h4c3.6,0,4-.2,3.6-2.3-.3-1.9-.9-2.2-4.5-2.1-3.4.1-4.1-.2-4.1-1.9,0-1.5-.3-1.7-1.4-.8-2.1,1.8-7.6,1-7.6-1.1s-2.8-1.4-4.7,1c-1.1,1.4-1.3,1.2-1.3-1.1,0-2.1-.6-2.8-2.7-3.3-1.6-.3-3.5-.8-4.3-1s-.8.2.4,1.1a7.45,7.45,0,0,0,3.2,1.5c1.3,0,.8,3.6-.8,5.7a4.79,4.79,0,0,0-.7,3c.2,1-2,5.2-5,9.3-5,7.1-5.2,7.7-4.7,12.2.4,2.5,2,9.1,3.6,14.5s3,10.1,3,10.5-7,.8-15.6.8H113.9l2.6-3.4c2.3-3,2.7-4.9,3.5-15.1.6-6.4,1.2-12.6,1.6-13.9.4-1.8-.5-3.7-4-8-4.6-5.6-4.6-5.6-2-5.6s2.5-.1-1.7-4c-5.1-4.6-5.5-4.7-6.2-2a2.44,2.44,0,0,1-2.4,1.9c-1.1,0-1.3-.3-.5-.6,1-.4,1-.8.1-1.9-1.7-2-5.2-1.7-7.2.6s-3.8,2.7-3.4.7c.1-.8-1.6-1.3-5.6-1.5-7.4-.4-13.7,2.1-13.7,5.4a3.29,3.29,0,0,1-1.2,2.7c-1.9.6-4.8-1.1-4.8-2.9,0-.8-.4-1.2-1-.9s-1-.1-1-.9c0-1.8-3.6-4-5-3.1-1.6,1-1.2,5.5.5,5.5,2.2,0,1.8,1.6-.7,3.4s-4.8.6-4.8-2.3a8,8,0,0,0-1.6-3.6c-1.4-1.9-1.6-1.9-2.5-.3a3.69,3.69,0,0,1-2.7,1.8c-1.5-.1-1.5-.2.1-1.5,2.7-2,1.9-4.5-1.2-3.4-1.9.8-2.3,1.5-1.9,4.3s0,3.6-1.4,3.9c-1.1.3-1.8,0-1.8-1s-.6-1.3-1.6-.9a17.7,17.7,0,0,1-4.6.6c-2.4,0-2.8.3-2,1.3,1.2,1.5.4,3.1-1.9,3.9-1.1.5-1.5,1.5-1.3,3.5.2,1.5.1,2-.2,1s-1-1.5-1.5-1.2-.9-.5-.9-1.9c0-2.6-2.5-3.7-3.2-1.5-.2.7-1.3.9-2.6.5-2.7-.9-2.9-2.3-.4-3,1-.4,2.4-2.2,3.1-4.1s1.6-3.5,2-3.5a12.51,12.51,0,0,0,3.7-2.5c2.8-2.5,2.8-2.6,1-4-2.3-1.7-4-2-3.1-.5,1.2,1.9-.6,3.1-2.1,1.5-1.4-1.3-1.4-1.7-.1-3a12.1,12.1,0,0,1,4.1-2.1c2.1-.5,2.6-.3,2.7,1.2,0,1.1.5.4,1-1.5s1.8-3.5,2.8-3.8a5.27,5.27,0,0,0,3.4-6.2c-.6-2.5-2-2.7-4.3-.6-1.5,1.3-2,1.3-4.9-.1-3.8-1.9-2.9-3.8,1.9-3.6,1.6,0,3-.4,3-.9a.92.92,0,0,0-1-.9,1.1,1.1,0,0,1-1-1.1c0-.5.4-.8.9-.4a1.22,1.22,0,0,0,1.6-.5c.3-.5.1-1-.4-1-1.9,0-1.2-4,.7-4.1,1.6-.1,1.6-.2,0-.6-1-.2-1.8-.9-1.8-1.5s.9-.8,2-.5,1.8.1,1.4-.4,0-.9.7-.9,1-.3.7-.6.3-1.5,1.4-2.6c2-2,2.1-2,5.1-.3,2.2,1.3,3.2,1.5,3.5.7s1.7-1.2,3.4-1.2c3.9,0,3.2-2-1.3-3.6-1.9-.7-2.7-1.3-1.8-1.3,2.2-.1,3.4-3.1,1.3-3.1-.8,0-1.2-.5-.9-1s.2-1-.4-1a1.54,1.54,0,0,0-1.3.9c-.1.6-2.3,1.2-4.8,1.5-2.8.3-4,.2-3.1-.3,1.2-.8,1.2-1.2-.2-2.5-2-2-3.7-2.1-3.7-.1a1.5,1.5,0,0,1-3,0c0-.8-.5-1.5-1.1-1.5a.55.55,0,0,0-.5.9c.4.5.2,2.1-.4,3.5-1,2.7-.2,3.4,1.7,1.5.7-.7,1.2-.6,1.6.5.4.9.2,1.6-.3,1.6s-1,2.2-1,5c0,4-.3,4.8-1.5,4.4a1.59,1.59,0,0,0-2.1,1,2.8,2.8,0,0,1-2.5,1.6c-2.5,0-3.5,2.6-1.9,4.6,1,1.1,1,1.8.2,2.6a4.77,4.77,0,0,0-1.2,3.1c0,1-.5,1.5-1.1,1.1a2.28,2.28,0,0,1-.6-2.5c.3-1,.1-2.2-.4-2.5s-.9.2-.9,1-1,1.6-2.2,1.8c-1.5.2-2.4,1.3-3,3.5-1,4-3.1,4.4-2.6.5.3-2.4,0-2.7-2.2-2.4-1.4.2-2.6.8-2.8,1.3-.5,1.4-2.3,1.1-2.1-.4.3-2.5-.1-3.8-1.1-3.2-.5.3-1-.1-1-1s-.4-1.4-.9-1.1c-1.1.7-6.1-1.6-6.1-2.9,0-.6,1.4-1.6,3-2.3s3-1.8,3-2.4,1.8-2.8,4-5.1c4.1-4,4.6-5.6,1.3-4.2a8.48,8.48,0,0,1-2.5.9,4.1,4.1,0,0,0-1.4.8c-1.4,1.5-2.1.8-2.2-2,0-2.6.3-2.9,3.1-2.9,1.7,0,3.3-.5,3.5-1.1A2.32,2.32,0,0,1,14.1,98c1.2,0,2.1-.9,2.5-2.8a14.53,14.53,0,0,1,2.2-4.5c1.1-1.3,1.2-1.7.2-1.7a4.36,4.36,0,0,0-2.6,1.7c-2.1,2.8-1.6,0,1.1-6,2.1-4.9,2.9-5.7,5.9-6.2,1.9-.4,3.9-.4,4.4-.1s1.2-.3,1.5-1.4c.6-2.4-1-3.7-2.6-2.1-1.9,1.9-3.9,1.3-3.2-.9.5-1.4.2-2-.9-2-1.4,0-1.4-.3-.4-2a2.88,2.88,0,0,1,3.6-1.5c1.5.4,2.2.1,2.2-1A1.69,1.69,0,0,1,29.8,66c2.1-.1,5.2-2.3,5.2-3.9,0-.7.5-.9,1-.6s1,.1,1-.5.5-.8,1-.5,1-.1,1-1a2.83,2.83,0,0,1,1.5-2.2c2.4-.8,7.7-6.4,6.9-7.2-.4-.3-.9-.1-1.1.6s-1.1.9-1.9.6-1.4.2-1.4,1.5-1,2.4-3,3.1c-1.6.5-3,1.6-3,2.3,0,1-.2,1-.8.1-1.2-1.9-.2-8.2,1.2-7.7s6.6-3.8,6.6-5.5c0-.6,1.1-1.1,2.5-1.1s2.5-.2,2.5-.4a15.63,15.63,0,0,1,.6-2c.5-1.2,0-1.6-2-1.6-1.4,0-2.6-.5-2.6-1s.7-1,1.5-1,1.5-.9,1.5-2.2c0-1.7.3-1.9,1.2-1,2,2,3.6,1.3,5.5-2.6,1.2-2.5,2.5-3.7,4.1-3.8,1.2-.1,2.2.2,2.2.6s1.1.5,2.5.2,2.5-1.1,2.5-1.8.4-1.4.9-1.4,1.2-.9,1.6-1.9c.8-2.6,6.1-9.2,6.8-8.5.3.3,1.9-.8,3.5-2.5a9.91,9.91,0,0,1,7-3.5c2.4-.2,4.3.1,4.6.8s.7.8,1.3,0a3,3,0,0,1,2.7-.8,15.6,15.6,0,0,0,5.5-1.2c4.4-1.7,10.1-2.5,10.1-1.3,0,.5.8.9,1.9.9,2.1,0,4.5,2.3,3.4,3.3-.3.4-.1.7.5.7s1.2-.4,1.2-.9,3-.9,6.8-.9c9,.1,11.5-.7,11-3.7a4.81,4.81,0,0,1,3.7-5.8C142.2-.25,147,0,147,1.05ZM98.6,159.65c2,4.3,4.7,10.2,6,13.1s2.4,5.5,2.4,5.7,1.5,3.6,3.4,7.5l3.4,7h-3.4c-1.9,0-3.4-.4-3.4-1a41.06,41.06,0,0,0-2.1-6.5l-2-5.5H84.4l-1.6,3.3a31.13,31.13,0,0,0-2.2,6.5c-.6,2.6-1.3,3.2-3.3,3.2-1.3,0-2.3-.3-2.1-.8s1.4-3,2.7-5.7,4-8.7,6.2-13.3,3.9-8.5,3.9-8.8c0-1.8,5.7-12.4,6.7-12.4C94.9,152,96.7,155.45,98.6,159.65ZM159.5,173v20H154V153h5.5Zm103.9-18.6a8.62,8.62,0,0,1,4.1,12.2c-.9,1.8-2.7,3.5-3.9,3.8-1.9.6-1.8.7,1.2,2.3,8.6,4.3,9.7,13.6,2,18.3-2.6,1.6-5.1,2-11.3,2h-8V153h6.3C257.2,153,261.6,153.55,263.4,154.35Zm44.2,1.1c6.8,3.4,9.7,8.1,10.2,16.7.4,5.9.1,7.3-2.2,11.3-4.8,8.2-13.7,11.9-22.5,9.5-10.1-2.7-15.1-9.2-15.2-19.8a33.54,33.54,0,0,1,.9-8.3c1.5-3.8,6.2-9,9.7-10.5C293.5,152.15,301.9,152.65,307.6,155.45ZM62,224.85c0,.5-.7,1.2-1.6,1.5-2.4.9-2.8.7-1.4-.9S62,223.45,62,224.85ZM48.8,234c-.3,6-.3,6,2.5,6,1.5,0,2.7.4,2.7,1,0,1.8-6.8,1.2-7.2-.6-.6-3.2.4-12.4,1.4-12.4C48.8,228,49,230.45,48.8,234ZM60,235c0,3.8-.3,7-.8,7s-.7-3.1-.7-7,.3-7,.8-7S60,231.05,60,235Zm11.7-.7c1.3,2.2,2.7,3.6,3.1,3.3s.5-2.7.3-5.1c-.1-2.7.2-4.5.8-4.5s1.1,2.7,1.1,7c0,3.8-.4,7-.8,7s-2.6-2.3-4.7-5.2l-4-5.2-.6,5.4c-.6,5.5-.6,5.4-.7-1.9-.2-6.7-.1-7.2,1.4-6A29.26,29.26,0,0,1,71.7,234.25Zm20.2-5.4c.8.5-.2.8-2.8.7-4.7-.1-6.1,1.2-6.1,6,0,2.3.6,3.4,2.5,4.2a6.84,6.84,0,0,0,4,.6c1.8-.7,2-4,.3-4.7-.7-.3-.3-.6,1-.6,1.8-.1,2.2.4,2.2,2.8,0,1.7-.6,3.1-1.6,3.5-5.2,2-10.4-1.2-10.4-6.4S87.4,226.05,91.9,228.85Zm7.3,4.8c.3,5.7.3,5.8,3.3,5.8s3-.1,3.3-5.8c.4-7.1,2.2-7.6,2.2-.5,0,5.6-1.9,8.8-5.3,8.8q-5.7,0-5.7-8.7C97,226.15,98.8,226.45,99.2,233.65Zm21.6.9c1.2,3.7,2,6.9,1.7,7.3s-.8-.5-1.2-1.7c-.7-3-6.9-3.2-7.8-.2-.3,1.1-1.1,2-1.7,2s-.8-.3-.6-.8,1.4-3.5,2.7-7,2.9-6.2,3.5-6.2S119.6,231,120.8,234.55Zm13.2-5.5c0,.6-.9.9-2,.6a3.2,3.2,0,0,0-3,.8c-1.1,1.4-.7,1.8,3.5,4,2.4,1.3,3.1,4.1,1.5,6-1.4,1.7-4.8,1.9-7,.4-1.2-.8-1-1,1-.8a23.65,23.65,0,0,0,3.8,0c1.6-.1,1.6-4.1-.1-4.1a4.3,4.3,0,0,1-4.3-5.3c.5-2.2,1.2-2.7,3.6-2.7C132.7,228,134,228.45,134,229.05Zm15.8-.4c-3.3.4-3.8.8-3.8,2.9,0,1.9.5,2.4,2.8,2.5l2.7.2-2.7.4c-2.3.4-2.8.9-2.8,3.3,0,2.6.4,2.9,3.8,3.3s3.3.4-1,.5l-4.8.2V228l4.8.2C153.1,228.25,153.2,228.35,149.8,228.65ZM164,234v6h3c1.7,0,3,.5,3,1.1s-1.6.9-3.7.7l-3.7-.3-.3-6.8c-.3-4.3,0-6.7.6-6.7S164,230.45,164,234Zm12,1c0,4-.4,7-1,7s-1-3-1-7,.4-7,1-7S176,231,176,235Zm12.8-6.3c-2.7.4-2.8.6-2.8,6.9,0,3.5-.3,6.4-.8,6.4s-.7-2.8-.7-6.2c0-5.8-.2-6.2-2.5-6.9-1.6-.5-.5-.7,3.5-.7C188.8,228.25,190.3,228.45,188.8,228.65Zm11,0c-3.3.4-3.8.8-3.8,2.9s.5,2.4,3.3,2.6l3.2.1-3.2.4c-2.9.4-3.3.8-3.3,3.5s.2,3,3,2.6c1.7-.3,3-.1,3,.4s-1.8.8-4,.8h-3.9v-7l.1-7,4.6.2C203.2,228.25,203.3,228.35,199.8,228.65Zm15,.5a3.94,3.94,0,0,1-.3,5.8c-1.3,1.1-1.2,1.6.6,4.1,1.1,1.6,1.6,2.9,1,2.9s-1.9-1.4-3.1-3-2.6-3-3.1-3-.9,1.3-.9,3-.4,3-1,3-1-3-1-7v-7h3.3C212.1,228,214.1,228.45,214.8,229.15Zm12.2.3a9.11,9.11,0,0,0,.9,3.3,72.86,72.86,0,0,1,4.1,8.9c0,1.2-2-.1-2.5-1.7s-1.5-2-4-2-3.4.5-3.8,2c-.3,1.1-1,2-1.5,2s.2-3.2,1.6-7C224.2,228.65,227,225.65,227,229.45Zm15.8-.8c-2.7.4-2.8.6-2.8,6.9,0,3.6-.4,6.4-1,6.4s-1-2.8-1-6.4c0-5.9-.2-6.5-2.2-6.9-1.3-.2.4-.4,3.7-.4S244.3,228.45,242.8,228.65Zm7.2,5.4v6l3.3-.3c3.2-.3,3.2-.4,3.5-6.1.2-3.1.7-5.7,1.2-5.7,1.6,0,1.1,9.4-.6,11.8a5.09,5.09,0,0,1-8,.4c-1.6-2-1.9-12.2-.4-12.2C249.6,228,250,230.65,250,234.05Zm20.4-5.5c1.9.7,2.2,6,.4,6.7-.9.3-.6,1.3,1,3.6,1.5,2.1,1.8,3.1.9,3.1-.7,0-2.1-1.4-3-3s-2.5-3-3.3-3c-1.2,0-1.4.7-.9,3,.4,1.9.3,3-.4,3s-1.1-2.7-1.1-7c0-6.7.1-7,2.4-7A15.32,15.32,0,0,1,270.4,228.55Zm15,5.9c2.9,7.3,3,7.5,1.7,7.5-.5,0-1.1-.9-1.4-2-.4-1.4-1.4-2-3.5-2s-3.2.6-3.7,2c-.3,1.1-1.1,2-1.6,2-1.2,0-1.2-2.7.1-3.5a2.28,2.28,0,0,0,1-1.9c0-2.2,2.9-8.6,3.9-8.6C282.4,228,284,230.85,285.4,234.45Zm13-5.6c.4.5-.2.7-1.1.5-2.4-.6-4.5.9-3.8,2.7a6.46,6.46,0,0,0,3.4,2.6c2.4.9,2.8,1.5,2.4,3.8-.3,1.4-1.2,2.9-1.9,3.2-1.9.7-6.4-.5-6.4-1.8,0-.6.7-.6,2.1.1a4.63,4.63,0,0,0,3.5.6c2.4-.9,1.5-3.7-1.6-4.9-3.5-1.3-4-2.4-2.9-5.5C293,228,297.3,227,298.4,228.85Z"/><path class="cls-2" d="M143,11c0,1.1.6,2,1.4,2a2,2,0,0,1,1.8,1.1c.3.8,1.5.6,3.8-.6l3.4-1.7-3.3-1.4C145.3,8.35,143,8.55,143,11Z"/><path class="cls-2" d="M154.8,13.65c1.2.2,2.2.9,2.2,1.4s-.4.7-1,.4-1-.2-1,.3c0,1.6,2.5,2,4.3.7,3-2.2,2-3.5-2.5-3.4C154.4,13.15,153.5,13.45,154.8,13.65Z"/><path class="cls-2" d="M163.7,13.65c-1.2,1.2-.7,2.2.8,1.7.8-.4,1.5-1,1.5-1.5C166,12.75,164.6,12.65,163.7,13.65Z"/><path class="cls-2" d="M172.1,15.85a2.24,2.24,0,0,0-.9,2.2c.3,1,.8.7,1.7-.9C174.2,14.75,174.1,14.55,172.1,15.85Z"/><path class="cls-2" d="M176.2,18.55a4.06,4.06,0,0,0-.7,3.4c.5,1.5.3,1.8-.9,1.4-.9-.3-1.6-.9-1.6-1.3s-.9-.7-2-.7c-2.2,0-2.8,3-.8,4.2q1.05.75.3-.6c-.6-1-.2-1.2,1.6-.7a18.23,18.23,0,0,0,4.4.7c1.7,0,1.8.2.5,1-1.1.7-.2.8,3,.4,2.5-.4,5.1-1.4,5.8-2.3,1.1-1.3,1-1.9-.9-3.4-2.6-2.1-4.8-2.2-5.5-.2-.4.8-1.1,1.5-1.7,1.5s-.7-.4.1-1.2c1.3-1.3,1.6-3.8.5-3.8A4.46,4.46,0,0,0,176.2,18.55Z"/><path class="cls-2" d="M159,19.85c0,.6.7,1.1,1.5,1.1s1.5.4,1.5.8c0,.9,4.7.9,5.5,0,.3-.3-.7-.9-2.2-1.2s-3.6-.9-4.5-1.2S159,19.25,159,19.85Z"/><path class="cls-2" d="M130,23c0,.5.7,1,1.5,1s1.5-.5,1.5-1-.7-1-1.5-1S130,22.35,130,23Z"/><path class="cls-2" d="M74.6,26.45c-.6,1.6,1.1,2,3.2.6,1.1-.7,1-1-.3-1.5C75.3,24.75,75.3,24.75,74.6,26.45Z"/><path class="cls-2" d="M83.5,27.05a1.78,1.78,0,0,1-2.1.5c-.8-.3-1.4-.1-1.4.4,0,1.5,3.2,1.1,5.4-.5,1.7-1.3,1.7-1.5.4-1.5A2.84,2.84,0,0,0,83.5,27.05Z"/><path class="cls-2" d="M130.6,31.55a2.71,2.71,0,0,0-.2,2.1c.8.8,2.6-.8,2.6-2.3C133,29.45,131.4,29.55,130.6,31.55Z"/><path class="cls-2" d="M154.6,30.85c-.7,1,2.2,3.7,3,2.8.4-.3-.1-1.3-.9-2.2S154.9,30.35,154.6,30.85Z"/><path class="cls-2" d="M190.6,33c-1.5.5-1.6.9-.7,1.4a2,2,0,0,0,2.4-.3C193.7,32.65,192.9,32.05,190.6,33Z"/><path class="cls-2" d="M193.5,34.85c-.3.5.5,1.1,1.7,1.3a3.58,3.58,0,0,1,2.6,1.6c.3,1.1,0,1.2-1.6.3a10.9,10.9,0,0,0-4.4-1c-2,.1-2.1.2-.3.6a9.31,9.31,0,0,1,3,1.4,5.65,5.65,0,0,0,3.3.9c2.3,0,2.3,0,.5-3S194.6,33.15,193.5,34.85Z"/><path class="cls-2" d="M174,35.85c0,1,3,2.4,3.7,1.7.3-.3.2-.9-.2-1.5C176.7,34.75,174,34.55,174,35.85Z"/><path class="cls-2" d="M129.91,35.1c-4,.8-5.7,2-7.7,5.7-1.9,3.4-2.5,11.8-1.3,17.8.6,2.9.5,3.8-.4,3.5-.7-.3-3.7,1.8-6.7,4.6-6,5.6-9.8,13.3-11,22.6-.4,3-1.2,5.7-1.7,6.1-.7.4-.7,1.1,0,2,.6.7,1.3,4,1.6,7.4.4,4.7,1,6.7,2.9,8.6a12.46,12.46,0,0,1,2.9,3.7c.5,1.5,6.9,3,12.4,3.1,4,0,6.6-1.3,11.9-6,7.6-6.7,9.2-8,9.9-8,.4,0,.7-1.7.7-3.8s.6-4.7,1.4-5.7c1.3-1.8,1.5-1.8,4.9,1,1.9,1.7,4.9,4.1,6.8,5.5,5.3,4.1,5.9,5,5.9,9,0,5,2.5,6.7,6.1,4.2a48.4,48.4,0,0,1,8.9-3.8c4.4-1.4,6.6-2.6,6.8-3.9.3-1.5-.1-1.7-2.3-1.1-1.5.4-5,.2-7.9-.4-5.1-1.1-5.1-1.2-9.8-9.6-2.7-4.6-4.8-8.9-4.8-9.4s1.5-1,3.4-1c2.8,0,3.6-.5,4.6-3,.7-1.7,3.6-4.7,6.6-6.8,4.8-3.3,5.2-3.9,4.7-6.7a14.46,14.46,0,0,0-.9-3.4c-.2-.2-2.9,2-6.1,4.8s-6.1,5.1-6.7,5.1.4-1,2-2.3c4.7-3.4,6.5-5.5,5.5-6.2-.6-.3-2.6.9-4.5,2.6s-4,2.8-4.6,2.4-1-.1-1,.4c0,1.3-3,4.5-5.6,5.9-1.5.8-2.5.4-5.2-1.9-4.5-4-8.3-3.7-13.5,1.2-1.1,1-2.3,1.6-2.7,1.4s-1.1-2.9-1.5-6-1.1-5.7-1.6-6a2.4,2.4,0,0,1-.9-1.7c0-.6,1.1-.3,2.5.6a9.1,9.1,0,0,0,3.5,1.6c2.1,0,7-5.8,7-8.2a8.92,8.92,0,0,1,1.5-4.4,8.29,8.29,0,0,0,1.5-4.4c0-1.8.3-2.1.9-1.2,1.1,1.8,2.1-.7,2.1-5.2,0-2.4-.9-4.3-3.4-6.8C142.71,34.5,137.91,33.4,129.91,35.1Z"/><path class="cls-2" d="M73,40.45c0,.9.6,1.2,1.5.9s1.5-1,1.5-1.5-.7-.9-1.5-.9A1.54,1.54,0,0,0,73,40.45Z"/><path class="cls-2" d="M94.4,40.45c-1,.8-1.4,1.5-.8,1.5a8.14,8.14,0,0,0,3-1.5c1-.8,1.4-1.5.8-1.5A8.14,8.14,0,0,0,94.4,40.45Z"/><path class="cls-2" d="M61,42c0,.5.7,1,1.5,1s1.5-.5,1.5-1-.7-1-1.5-1S61,41.35,61,42Z"/><path class="cls-2" d="M172.5,41.85c-.7,1.2,1.2,2.4,2.5,1.6,1.1-.7.4-2.5-1-2.5A2.2,2.2,0,0,0,172.5,41.85Z"/><path class="cls-2" d="M153,42.85c0,1,3,2.4,3.7,1.7.3-.3.2-.9-.2-1.5C155.7,41.75,153,41.55,153,42.85Z"/><path class="cls-2" d="M196,42.85c0,.9,2.7,4.1,3.6,4.1,1.3,0,.1-3.1-1.6-4C196.8,42.35,196,42.25,196,42.85Z"/><path class="cls-2" d="M79,45c0,.6.7,1,1.5,1s2,1,2.6,2.2c.8,1.4,1.4,1.8,1.6,1.1a2.6,2.6,0,0,0-.9-2.6C82,44.85,79,43.85,79,45Z"/><path class="cls-2" d="M109.3,47.65c-1.6.6-1.7,3.3-.3,3.3,1.1,0,2.6-2.8,1.9-3.4C110.7,47.35,109.9,47.45,109.3,47.65Z"/><path class="cls-2" d="M93.7,48.65a2.4,2.4,0,0,0-.2,2.3c.8,1.3,3.5,1.3,3.5-.1,0-.5-.4-.8-.9-.4s-1.1-.3-1.3-1.2C94.5,48,94.2,47.75,93.7,48.65Z"/><path class="cls-2" d="M48.7,58.35c-.3.8-.2,1.8.3,2.1,1.3.8,2-.9,1.1-2.4C49.5,57.05,49.1,57.15,48.7,58.35Z"/><path class="cls-2" d="M69.7,58.45a3.15,3.15,0,0,0-1.4,3.2c.4,1.6.6,1.5,1.2-.5.4-1.2,1.4-2.2,2.1-2.2s1.4-.5,1.4-1C73,56.55,71.9,56.75,69.7,58.45Z"/><path class="cls-2" d="M103.6,58.75a5.16,5.16,0,0,0,.1,3c.5,2.1.6,2.1,1.8.5a3.65,3.65,0,0,0,.8-3C105.7,57.75,104.4,57.55,103.6,58.75Z"/><path class="cls-2" d="M186.5,60a3.5,3.5,0,0,0,2.6,1c1,0,1.9-.5,1.9-1s-1.2-1-2.6-1S186.1,59.35,186.5,60Z"/><path class="cls-2" d="M68,67.85c0,1.7,1.8,2.1,2.4.6.3-.9,0-1.5-.9-1.5S68,67.35,68,67.85Z"/><path class="cls-2" d="M90.3,82a19,19,0,0,1,.7,3.2c0,.5.6.8,1.4.8,1.8,0,1-3.4-1.2-5.2C89.9,79.65,89.7,79.75,90.3,82Z"/><path class="cls-2" d="M52.2,82.05a2.86,2.86,0,0,0,1.7,1.7c.8.3,1.2-.1.9-.9a2.86,2.86,0,0,0-1.7-1.7C52.3,80.85,51.9,81.25,52.2,82.05Z"/><path class="cls-2" d="M94.5,83.85a1.12,1.12,0,0,0,1.5.6.94.94,0,0,1,1.3.5c.3.6.4.5.3-.2a2.44,2.44,0,0,0-2.1-1.6C94.4,82.85,94,83.15,94.5,83.85Z"/><path class="cls-2" d="M79.8,86.75c-1.6.3-1.6.5-.4,1.8,1.6,1.5,4.6,1.9,4.6.5S81.6,86.25,79.8,86.75Z"/><path class="cls-2" d="M175.8,88.75c-2.8.6-2.1,2.9.9,3.5,3.2.6,4.3.1,4.3-1.7C181,89.05,178.4,88.15,175.8,88.75Z"/><path class="cls-2" d="M77.4,90.65a2,2,0,0,1-.5,2.4c-.8.4-.4,1.1,1.1,1.9,3,1.6,3.3.9,1.4-2.8C77.8,88.85,76.3,87.75,77.4,90.65Z"/><path class="cls-2" d="M204.5,92.05a1.78,1.78,0,0,1-2.1.5c-2.3-.9-4.6.4-3.4,1.9.9,1.1.4,1.3-2.5,1.1-4-.4-5.3.8-3.5,2.9,1.1,1.3.5,1.5-3.6,1.5h-4.9l3.5,1.7c1.9,1,3.6,2,3.8,2.4s1.1.5,2.1.2a2.28,2.28,0,0,1,2.5.6c1.1,1.7,5.7,1.3,7.8-.6,1-.9,1.8-1.1,1.8-.5s-.9,1.6-2,2.2c-2.7,1.5-2.5,3,.4,3,1.4,0,2.8.4,3.1,1,.9,1.5,4.5,1.2,4.5-.4a2.53,2.53,0,0,0-1.5-2c-.8-.3-1.5-1-1.5-1.6,0-.8.6-.8,2,0,1.7.9,2,.8,2-1v-2.5a.44.44,0,0,0-.6-.4c-1.6.2-2.2-2.7-.8-4.2s1.3-1.8,0-2.8a2.7,2.7,0,0,1-.9-2.7c.6-1.7-.9-1.8-2.5-.2-.9.9-1.2.9-1.2,0C207,90.65,205.3,90.55,204.5,92.05Z"/><path class="cls-2" d="M67,93a1.08,1.08,0,0,0,1,1c.6,0,1,.6,1,1.3,0,1.9,3.7,3.9,4.6,2.5.4-.7.2-1.4-.5-1.6a11.41,11.41,0,0,1-3.2-2.3C67.8,91.75,67,91.45,67,93Z"/><path class="cls-2" d="M48.5,94a3.5,3.5,0,0,0,2.6,1c1.1,0,1.7-.5,1.4-1s-1.5-1-2.6-1S48.2,93.35,48.5,94Z"/><path class="cls-2" d="M63.6,94.45A2.53,2.53,0,0,1,61.5,96c-2.6,0-1.3,3.5,1.4,3.8,1.9.3,2.2,0,1.6-1.7-.7-2.3.4-2.8,2.3-.9.9.9,1.2.9,1.2,0,0-.7-.4-1.2-1-1.2s-1-.7-1-1.5-.4-1.5-.9-1.5S64,93.65,63.6,94.45Z"/><path class="cls-2" d="M92.1,96.05c.9,1.7,1.3,1.9,1.9.8,1.1-1.6.4-2.9-1.6-2.9C91.2,94,91.1,94.35,92.1,96.05Z"/><path class="cls-2" d="M167,96.85c-2.4.7-2.3.8,1,1.4,2.7.6,3.2,1,2,1.7s-1.2,1,.3,1c1.2,0,1.7-.8,1.7-2.5C172,95.85,171.3,95.65,167,96.85Z"/><path class="cls-2" d="M77.5,100a2.82,2.82,0,0,0,2.1,1c.8,0,1.2-.5.9-1a2.52,2.52,0,0,0-2.1-1C77.6,99,77.2,99.35,77.5,100Z"/><path class="cls-2" d="M226,100.85c0,2.1,1.7,3.7,2.7,2.7.3-.3.1-1.2-.5-1.9s-.9-1.7-.5-2,.1-.7-.5-.7S226,99.85,226,100.85Z"/><path class="cls-2" d="M31.6,106.45c-.4,1,.1,1.5,1.4,1.5,1.1,0,2-.7,2-1.5a1.45,1.45,0,0,0-1.4-1.5A2.53,2.53,0,0,0,31.6,106.45Z"/><path class="cls-2" d="M85.6,105.65c-3.8,1-4.6,2.7-2.2,5,3,2.9,6.2,3.7,7,1.8a2.81,2.81,0,0,1,2.8-1.5c4,.4,5.8,0,5.8-1.1,0-.5-.5-.7-1.1-.3s-1.9-.2-2.8-1.4C93.4,106.05,88.8,104.85,85.6,105.65Z"/><path class="cls-2" d="M218,106.35c0,.6,1.1,1.3,2.5,1.4s2.5-.2,2.5-.7-1.1-1.1-2.5-1.3S218,105.65,218,106.35Z"/><path class="cls-2" d="M223.3,108.65c-1,.4-.9.9.3,2,1.8,1.8,2.4,1.5,1.5-.8A1.63,1.63,0,0,0,223.3,108.65Z"/><path class="cls-2" d="M46.4,110.05a2.09,2.09,0,0,0,.5,2.2c.8.8,1.1.5,1.1-1.1C48,108.75,47.5,108.35,46.4,110.05Z"/><path class="cls-2" d="M185.5,114.55c-1.7,1.7-1.7,1.9-.2,2.2a9.15,9.15,0,0,0,3.3,0c1.3-.3,1.3-.6.1-2.2C187.4,112.75,187.3,112.75,185.5,114.55Z"/><path class="cls-2" d="M64,117c0,.5.7,1,1.5,1s1.5-.5,1.5-1-.7-1-1.5-1S64,116.35,64,117Z"/><path class="cls-2" d="M61.5,121a5.54,5.54,0,0,1-3,.3c-.5-.2-.1.3.9,1.1,2,1.6,5.6,2.2,5.6.8A2.39,2.39,0,0,0,61.5,121Z"/><path class="cls-2" d="M136.9,120.05c-.9,2.8-.4,4.9,1.2,4.9,2.7,0,3.1-1.5.9-3.5C137.9,120.45,136.9,119.85,136.9,120.05Z"/><path class="cls-2" d="M188.5,126c-.2.3.5,1.2,1.5,2s1.7,1.7,1.4,2.2,0,.8.5.8,1.1-.7,1.1-1.6c0-1.4.3-1.4,1.5-.4s1.5,1,1.5-.3C196,126.55,189.6,124.15,188.5,126Z"/><path class="cls-2" d="M197,127.85a4,4,0,0,0,2,3.1,3.61,3.61,0,0,1,2,2.5c0,.8.4,1.5.9,1.5s.7-.9.4-2,0-2,.6-2a1.1,1.1,0,0,0,1.1-1,1,1,0,0,0-1.2-.9c-2.6.3-3.8-.1-3.5-1.2a1.62,1.62,0,0,0-1-1.6C197.5,126,197,126.65,197,127.85Z"/><path class="cls-2" d="M213,128.85c0,1.9.4,2.1,2.3,1.5,3-.9,3.3-1.2,1.9-2.6-.9-.9-1.2-.9-1.2.1s-.3,1.1-1.5.1S213,127.05,213,128.85Z"/><path class="cls-2" d="M112,129c0,.5.7,1,1.5,1s1.5-.5,1.5-1-.7-1-1.5-1S112,128.35,112,129Z"/><path class="cls-2" d="M44,131.05a5.49,5.49,0,0,1-1.5,2.6c-.9.8-1.3,1.8-.9,2.2s.9,0,1.1-.7a2.32,2.32,0,0,1,1.9-1.2c.8,0,1.4-.9,1.4-2s-.4-2-1-2A1.1,1.1,0,0,0,44,131.05Z"/><path class="cls-2" d="M53.2,132.35c-4.2,1.5-3.2,2.6,1.5,1.6,4.1-1,6.8-3,3.8-2.9A19.18,19.18,0,0,0,53.2,132.35Z"/><path class="cls-2" d="M44,137.35c0,1.3-.6,2.7-1.2,2.9-.8.3-.6.6.5.6a1.44,1.44,0,0,0,1.7-1.3,4.86,4.86,0,0,1,2.2-3l2.2-1.6H46.7C44.5,135,44,135.45,44,137.35Z"/><path class="cls-2" d="M202,137.25c0,.8,1.6,1.8,3.5,2.4,4,1.3,4.4.8,1.3-1.8C204.3,135.65,202,135.35,202,137.25Z"/><path class="cls-2" d="M96.7,137.65c-1,.9,1.3,3.3,3.2,3.3a4.67,4.67,0,0,1,2.9,1.2c.8.8,1.5.8,2.6-.1s1.6-.9,2.1-.1c.9,1.5,3.5,1.2,3.5-.4a4.42,4.42,0,0,0-1.5-2.6c-1.2-1-1.8-1-3.1.1s-1.8,1-3-.6c-1.4-1.8-1.4-1.8-1.5.1,0,1-.3,1.3-.6.6s-.9-1-1.4-.6a.55.55,0,0,1-.9-.5C99,136.85,97.7,136.55,96.7,137.65Z"/><path class="cls-2" d="M140,141c-1.4.4-2.1.8-1.6.9s.3.7-.3,1.5c-1.5,1.8.5,10.5,2.5,11.3,3.7,1.4,6.4-6.8,3.9-11.7a11.83,11.83,0,0,0-1.8-2.9A18.76,18.76,0,0,1,140,141Z"/><path class="cls-2" d="M63.4,143.05c-1.9,2.1-1.9,2.1.6,1.8a3.32,3.32,0,0,0,2.8-2.2C67.3,140.35,65.7,140.45,63.4,143.05Z"/><path class="cls-2" d="M184.7,142.35c-.4,1-.5,2.1-.2,2.4.9.9,1.7-.6,1.3-2.5C185.5,140.55,185.4,140.55,184.7,142.35Z"/><path class="cls-2" d="M39.3,143.45c-1.8.8-3.3,2.1-3.3,2.9,0,1.3.5,1.3,3.8.2,2-.7,3.8-2,4-2.9C44.2,141.65,43.5,141.55,39.3,143.45Z"/><path class="cls-2" d="M125,145.65a10.94,10.94,0,0,0-3.2,2.1c-1.2,1-1.8,1.1-1.8.4a1.37,1.37,0,0,0-1.5-1.2c-2.5,0-1.7,2.7,1,3.4,1.4.4,4.3,2.3,6.5,4.2s4.4,3.3,5,2.9c1.4-.9,1.2-5-.4-9C129.1,145.05,128.1,144.55,125,145.65Z"/><path class="cls-2" d="M214.7,150.55c-.8.8.1,2.4,1.4,2.4.5,0,.9-.7.9-1.5C217,150,215.8,149.45,214.7,150.55Z"/><path class="cls-2" d="M181,151.85c0,1.1,2.6,2.2,3.4,1.4a1.2,1.2,0,0,0,0-1.4C183.7,150.65,181,150.75,181,151.85Z"/><path class="cls-2" d="M174,163v8h3.3a11.39,11.39,0,0,0,5.4-1.5c2.6-1.8,3.6-6.4,1.6-7.2a1.55,1.55,0,0,1-.9-2c1.1-2.7-1.7-5.3-5.6-5.3H174Z"/><path class="cls-2" d="M211.3,157c-4.8,2.9-6.7,7.3-6.5,15.2.1,7.6,2.5,13.3,6.8,16.7,4,3.2,13.2,3,17.2-.4,4.3-3.6,5.5-7.4,5-15.8-.8-12-5.5-17.7-14.8-17.7A15.71,15.71,0,0,0,211.3,157Z"/><path class="cls-2" d="M174,182v9h5.3c6.2,0,8.6-2.1,9.4-8.1.5-3.3.1-4.2-2.5-6.9-2.5-2.5-3.9-3-7.6-3H174Z"/><path class="cls-2" d="M92,161.35c0,.8-1.4,4.4-3.1,8s-2.8,7-2.5,7.3c.9,1,14.1.6,14.1-.4a75.14,75.14,0,0,0-3.4-8.6C93.9,160.45,92,158.15,92,161.35Z"/><path class="cls-2" d="M252,163v8h3.8c5.3,0,7.7-2.8,7.7-8.7,0-5.4-2-7.3-7.7-7.3H252Z"/><path class="cls-2" d="M252,182v9h4.6c6,0,8.1-1.3,9.5-5.8a9.1,9.1,0,0,0-.4-7.4c-1.5-3.6-4.1-4.8-10.8-4.8H252Z"/><path class="cls-2" d="M290.3,156.45c-5.5,2.3-7.5,6.7-7.1,15.5.6,12.6,5.7,19.1,15.1,19.2,9.2.2,14.2-6,14.2-17.2C312.5,159.45,302.1,151.25,290.3,156.45Z"/><path class="cls-2" d="M116,233.25c-1.5,3.1-1,4,1.8,3.5,1.9-.3,1.9-.6.7-3.3l-1.2-3Z"/><path class="cls-2" d="M209,232.05c0,2.6.3,3,2.2,2.7,2.6-.3,3.7-3.6,1.6-4.9C210.3,228.15,209,229,209,232.05Z"/><path class="cls-2" d="M224.3,233.45c-1.1,3.3-1,3.5,1.2,3.5s2.3-.2,1.3-3.3c-.6-1.7-1.2-3.3-1.3-3.4S224.9,231.55,224.3,233.45Z"/><path class="cls-2" d="M265.4,230.45c-.9,2.3.3,4.5,2.5,4.5a2.78,2.78,0,0,0,2-4.6C268.4,228.55,266.1,228.55,265.4,230.45Z"/><path class="cls-2" d="M280.6,233.15c-.9,3.5-.8,3.8,1.4,3.8,1.1,0,2-.3,2-.8,0-1.9-1.3-5.2-2-5.2C281.6,231,281,232,280.6,233.15Z"/></g></g></svg>