<svg xmlns="http://www.w3.org/2000/svg" xmlns:xlink="http://www.w3.org/1999/xlink" viewBox="0 0 454.55 340.64"><defs><style>.cls-1{fill:#ddd;}.cls-2{fill:#7ea5a3;}.cls-3{fill:#4e0a06;}.cls-4{fill:url(#radial-gradient);}.cls-5{fill:url(#radial-gradient-2);}.cls-6{fill:url(#radial-gradient-3);}.cls-22,.cls-23,.cls-7{fill:#fff;}.cls-8{fill:#c6c2a6;}.cls-9{fill:#9f0c24;}.cls-10{fill:url(#radial-gradient-4);}.cls-11,.cls-12,.cls-29{fill:none;}.cls-11,.cls-12{stroke:#9f0c24;stroke-miterlimit:10;}.cls-11{stroke-width:1.89px;}.cls-12{stroke-width:1.28px;}.cls-13{fill:url(#radial-gradient-5);}.cls-14{fill:url(#radial-gradient-6);}.cls-15{fill:#c3e1cc;}.cls-16{fill:#f28c00;}.cls-17{opacity:0.38;fill:url(#linear-gradient);}.cls-18,.cls-21{fill:#1d1d1b;}.cls-18{opacity:0.44;}.cls-19{fill:#de680e;}.cls-20{fill:#521c00;}.cls-21{opacity:0.27;}.cls-22{opacity:0.18;}.cls-23{opacity:0.48;}.cls-24{fill:#006da1;}.cls-25{fill:#c79f6e;}.cls-26{fill:#ecd6a7;}.cls-27{fill:#fffde8;}.cls-28{fill:#ede7bf;}.cls-29{stroke:#a45e00;stroke-linecap:round;stroke-linejoin:round;stroke-width:1.16px;}.cls-30{fill:#e30613;}.cls-31{fill:#ffd600;}.cls-32{fill:#f7ab19;}.cls-33{fill:#c67f16;}.cls-34{fill:#ffebc5;}.cls-35{fill:#e4c399;}.cls-36{fill:#36311c;}.cls-37{fill:#3e9117;}.cls-38{fill:#333;}.cls-39{fill:#b7b5e2;}.cls-40{fill:#2c5615;}.cls-41{fill:#bf60a2;}.cls-42{fill:#e0dc48;}.cls-43{fill:#ce2009;}.cls-44{fill:#157772;}.cls-45{fill:#a842ad;}.cls-46{fill:#2e0a72;}</style><radialGradient id="radial-gradient" cx="155.75" cy="287.65" r="56.53" gradientUnits="userSpaceOnUse"><stop offset="0" stop-color="#fffdf0"/><stop offset="1" stop-color="#f3edc9"/></radialGradient><radialGradient id="radial-gradient-2" cx="304.52" cy="290.75" r="54.3" xlink:href="#radial-gradient"/><radialGradient id="radial-gradient-3" cx="143.35" cy="299.65" r="104.63" xlink:href="#radial-gradient"/><radialGradient id="radial-gradient-4" cx="-908.13" cy="299.65" r="104.63" gradientTransform="matrix(-1, 0, 0, 1, -588.89, 0)" xlink:href="#radial-gradient"/><radialGradient id="radial-gradient-5" cx="202.61" cy="255.14" r="43.68" xlink:href="#radial-gradient"/><radialGradient id="radial-gradient-6" cx="265.48" cy="262" r="41.48" xlink:href="#radial-gradient"/><linearGradient id="linear-gradient" x1="-979.16" y1="715.71" x2="-973.33" y2="707.76" gradientTransform="matrix(-0.71, -0.7, 0.7, -0.71, -956.89, -14.48)" gradientUnits="userSpaceOnUse"><stop offset="0" stop-color="#1d1d1b"/><stop offset="1" stop-color="#1d1d1b" stop-opacity="0"/></linearGradient></defs><title>sobre-aulasAtivo 3</title><g id="Camada_2" data-name="Camada 2"><g id="BACKGROUND"><ellipse class="cls-1" cx="230.51" cy="336.2" rx="218.45" ry="4.44"/><path class="cls-2" d="M351.15,165.61c-2.8-3-7.27-.27-9.43,2-1.75,1.88-2.7,4.55-3.55,6.91-1.18,3.3-2.12,6.67-3.27,10-.28.79,1,1.07,1.27.28,1.84-5.27,2.81-11.91,6.51-16.27,1.47-1.75,3.84-3.24,6.2-2.77,3,.6,3.18,4.71,3.07,7.05-.25,5.07-1.86,10.27-3.29,15.11-.76,2.6-1.49,5.21-2.32,7.79-.89,2.74-1.88,6.08-4.8,7.24-3.85,1.53-3.64-3.52-3.36-5.63.34-2.66.57-5.32,1-8a39.12,39.12,0,0,1,3.13-10.52,7.26,7.26,0,0,1,1.11-1.69c1.77-1.94,3.66,1.69,3.51,3.1a24.65,24.65,0,0,1-.8,3.58c-.85,3.33-1.67,7-3.31,10.05a.65.65,0,0,0,1.15.61c1.7-3.16,2.53-6.93,3.43-10.38.67-2.56,1.84-6.51-1.21-8.13-3.59-1.92-5.17,2.3-6.17,4.94a53.4,53.4,0,0,0-2.88,13.92c-.25,2.63-1.75,8.57,2.19,9.43,5,1.1,7-4.55,8.25-8.27a143.27,143.27,0,0,0,4.77-17.59C353.2,174.21,354.41,169.07,351.15,165.61Z"/><path class="cls-2" d="M14.7,242.15c-4-.75-6,4.09-6.4,7.22-.3,2.55.52,5.26,1.23,7.67,1,3.36,2.24,6.63,3.26,10,.25.8,1.44.26,1.19-.53-1.63-5.34-4.78-11.27-4.38-17,.15-2.28,1.18-4.89,3.36-5.9,2.74-1.27,5.35,1.91,6.64,3.86,2.8,4.24,4.58,9.39,6.3,14.12.92,2.55,1.88,5.09,2.73,7.66.91,2.74,2.09,6,.43,8.68-2.2,3.51-5-.68-6-2.55-1.3-2.35-2.69-4.63-3.89-7A39.28,39.28,0,0,1,15.43,258a7.14,7.14,0,0,1-.12-2c.29-2.61,4-.81,4.67.41a25.71,25.71,0,0,1,1.47,3.36c1.29,3.19,2.8,6.64,3.28,10.07a.65.65,0,0,0,1.29-.19c-.5-3.56-2.06-7.09-3.38-10.41-1-2.45-2.36-6.33-5.79-5.83-4,.58-2.8,4.91-2,7.63A53.62,53.62,0,0,0,20.72,274c1.36,2.27,3.67,7.95,7.35,6.31,4.7-2.09,2.95-7.81,1.75-11.56a140.91,140.91,0,0,0-6.56-17C21.45,247.87,19.37,243,14.7,242.15Z"/></g><g id="OBJECTS"><path class="cls-3" d="M248,320.13c0,2.53-7.4,4.58-16.54,4.58s-16.55-2-16.55-4.58,8.3-5.61,17.43-5.61S248,317.6,248,320.13Z"/><path class="cls-4" d="M230.53,310c-5.88-35.45-26.16-41.38-45.22-42.5-22.09-1.31-39.91,4.1-57.13,9.33-15.49,4.7-33.19,9.44-49.18,8.23l3.22-2.28c15.63,1.17,30.08-3.22,45.38-7.86,17.39-5.28,35.37-10.74,57.83-9.42,18.69,1.11,40.93,7.12,47.07,44.17Z"/><path class="cls-5" d="M232,309.23l-2-.22c1.27-11.5,8.24-22.39,18.65-29.13,9.3-6,25.48-11.56,49.72-3.76,7.47,2.41,14.21,4.63,20.17,6.59,26.48,8.71,41.06,13.51,58.67,14.83l1.88,2.14c-17.85-1.34-34.55-6.31-61.18-15.07-5.95-2-12.69-4.18-20.15-6.58-23.5-7.57-39.08-2.26-48,3.53C239.8,288,233.16,298.32,232,309.23Z"/><polygon class="cls-3" points="216.34 296.09 166.03 295.81 57.26 313.73 43.91 319.36 216.34 319.36 216.34 296.09"/><path class="cls-6" d="M231,307.17c-4.24-19.77-32.59-40.4-73.45-23.87s-65.16,20.36-91.78,20.36a200,200,0,0,1-16.09,14.52s64.87,2.14,94.1-4.59c35.91-8.26,56-20.19,71.61,5.05,7.08-4.58,16.06-4.59,16.06-4.59A20.47,20.47,0,0,0,231,307.17Z"/><path class="cls-7" d="M65.74,305.61c26.62,0,50.93-3.84,91.78-20.36s69.21,4.1,73.45,23.87a27.39,27.39,0,0,1,.54,4.05,23.29,23.29,0,0,0-.54-6c-4.24-19.77-32.59-40.4-73.45-23.87s-65.16,20.36-91.78,20.36a200,200,0,0,1-16.09,14.52S61.26,310.32,65.74,305.61Z"/><path class="cls-8" d="M69,308.8l1.14.3a28.13,28.13,0,0,0,3.26.59l2.36.24,2.78.15c2,.05,4.23.05,6.68,0a159.93,159.93,0,0,0,16.66-1.39c3-.39,6.16-.9,9.31-1.48s6.35-1.26,9.51-2c1.59-.36,3.16-.81,4.72-1.24s3.11-.91,4.64-1.39c3.07-1,6.07-2,9-2.88s5.8-1.73,8.53-2.47,5.31-1.4,7.7-2c4.78-1.17,8.82-1.91,11.65-2.42s4.46-.67,4.46-.67-1.61.32-4.39,1-6.75,1.72-11.48,3c-2.36.68-4.91,1.42-7.59,2.26s-5.51,1.75-8.42,2.71-5.89,2.05-9,3c-1.55.5-3.1,1-4.69,1.44s-3.16.91-4.77,1.28c-3.2.78-6.43,1.45-9.62,2s-6.36,1-9.42,1.35a139.62,139.62,0,0,1-16.84.86c-1.24,0-2.42,0-3.54-.1s-2.19-.14-3.19-.23l-2.79-.31L73.3,310c-.71-.13-1.34-.3-1.88-.43a9.14,9.14,0,0,1-1.36-.4Z"/><path class="cls-8" d="M141.2,297.56l3.64-1.38c2.33-.84,5.63-2.12,9.67-3.46,2-.67,4.2-1.38,6.54-2.09s4.8-1.43,7.4-2.06,5.28-1.24,8.05-1.68a78.65,78.65,0,0,1,8.47-1,55.54,55.54,0,0,1,8.56.12,40.42,40.42,0,0,1,8.17,1.53,32.73,32.73,0,0,1,7.16,3,13.64,13.64,0,0,1,1.57.95c.5.33,1,.64,1.48,1,.9.73,1.84,1.35,2.62,2.1a25.18,25.18,0,0,1,2.21,2.15,23.92,23.92,0,0,1,1.81,2.1c.53.69,1.06,1.31,1.47,1.94l1.14,1.72c.69,1,1.09,1.93,1.43,2.5l.49.89-.57-.85c-.38-.54-.88-1.38-1.63-2.36l-1.24-1.62c-.45-.59-1-1.16-1.57-1.81a26.6,26.6,0,0,0-1.91-1.93c-.67-.69-1.46-1.32-2.25-2s-1.73-1.26-2.63-1.94c-.47-.3-1-.58-1.46-.88a16.53,16.53,0,0,0-1.55-.85l-1.63-.8-1.72-.69c-.57-.25-1.18-.42-1.79-.63s-1.21-.42-1.85-.56a42.73,42.73,0,0,0-7.9-1.34,54.83,54.83,0,0,0-8.31-.05,76,76,0,0,0-8.3.91c-2.73.42-5.41,1-8,1.52s-5.06,1.18-7.4,1.79-4.56,1.22-6.6,1.81l-9.85,2.86Z"/><path class="cls-8" d="M92.71,316.82l1.44-.09,4.07-.29c3.5-.26,8.49-.77,14.45-1.47,3-.36,6.21-.81,9.61-1.32s7-1.16,10.65-1.88,7.46-1.57,11.27-2.52,7.65-2.07,11.39-3.43c1.87-.65,3.78-1.36,5.65-2s3.79-1.33,5.69-1.89a87.37,87.37,0,0,1,11.36-2.78,52.86,52.86,0,0,1,10.94-.78,37.3,37.3,0,0,1,5.06.56,31,31,0,0,1,4.63,1.11,15.91,15.91,0,0,1,2.1.78c.67.28,1.34.53,2,.82,1.2.7,2.38,1.3,3.41,2l2.79,2c.8.7,1.51,1.38,2.16,2l.91.85.72.83,1.13,1.32.94,1.1-1-1-1.2-1.23-.77-.79-.95-.8c-.67-.56-1.4-1.19-2.22-1.85l-2.83-1.87c-1-.6-2.23-1.14-3.43-1.76l-1.94-.73a15.59,15.59,0,0,0-2.06-.7,32.83,32.83,0,0,0-4.52-.95,35.67,35.67,0,0,0-4.93-.39,56,56,0,0,0-10.64,1,92.86,92.86,0,0,0-11.12,2.87c-1.88.56-3.73,1.25-5.61,1.89s-3.74,1.4-5.66,2.07c-3.81,1.37-7.71,2.44-11.55,3.42-1.93.46-3.85.94-5.75,1.31s-3.79.76-5.65,1.09c-3.71.69-7.33,1.18-10.75,1.63s-6.68.77-9.69,1c-6,.56-11,.73-14.54.85-1.75.05-3.13.06-4.07.05Z"/><rect class="cls-9" x="43.91" y="319.35" width="172.43" height="2.89"/><path class="cls-8" d="M160.89,302.56l1.44-.77c.45-.25,1-.51,1.69-.81a22.45,22.45,0,0,1,2.25-1c.83-.34,1.75-.66,2.72-1s2-.63,3.09-.94,2.2-.56,3.36-.78,2.32-.47,3.5-.64,2.38-.28,3.55-.41,2.33-.18,3.45-.17a31.09,31.09,0,0,1,3.23.07c1,.05,2,.2,2.88.29s1.7.28,2.4.48,1.32.34,1.81.53l1.52.61-1.57-.45c-.49-.14-1.12-.23-1.82-.38s-1.52-.18-2.39-.31-1.84-.15-2.86-.15-2.08,0-3.18.05-2.24.14-3.4.23-2.33.24-3.49.45-2.33.36-3.48.58-2.25.48-3.33.72-2.12.51-3.09.81-1.9.54-2.74.84-1.61.53-2.28.79-1.28.46-1.75.67Z"/><polygon class="cls-3" points="246.26 296.09 296.56 295.81 405.33 313.73 418.69 319.36 246.26 319.36 246.26 296.09"/><path class="cls-10" d="M231.63,307.17c4.24-19.77,32.59-40.4,73.44-23.87s65.16,20.36,91.78,20.36a200,200,0,0,0,16.09,14.52s-64.87,2.14-94.1-4.59c-35.91-8.26-56-20.19-71.61,5.05-7.08-4.58-16.06-4.59-16.06-4.59A20.34,20.34,0,0,1,231.63,307.17Z"/><path class="cls-7" d="M396.85,305.61c-26.62,0-50.93-3.84-91.78-20.36s-69.2,4.1-73.44,23.87a24.94,24.94,0,0,0-.54,4.05,22.4,22.4,0,0,1,.54-6c4.24-19.77,32.59-40.4,73.44-23.87s65.16,20.36,91.78,20.36a200,200,0,0,0,16.09,14.52S401.34,310.32,396.85,305.61Z"/><path class="cls-8" d="M393.64,308.8l-1.11.39a9.14,9.14,0,0,1-1.36.4c-.54.13-1.17.3-1.88.43l-2.35.38-2.8.31c-1,.09-2.06.15-3.18.23s-2.31.06-3.55.1a139.37,139.37,0,0,1-16.83-.86c-3.07-.35-6.23-.77-9.43-1.35s-6.42-1.23-9.62-2c-1.61-.37-3.19-.84-4.77-1.28s-3.14-.94-4.69-1.44c-3.09-1-6.06-2.09-9-3s-5.73-1.88-8.41-2.71-5.24-1.58-7.6-2.26c-4.73-1.31-8.68-2.38-11.47-3s-4.4-1-4.4-1,1.63.17,4.46.67,6.87,1.25,11.65,2.42c2.4.59,5,1.25,7.71,2s5.59,1.54,8.53,2.47,6,1.92,9,2.88c1.53.48,3.07,1,4.64,1.39s3.13.88,4.72,1.24c3.16.79,6.35,1.47,9.51,2s6.27,1.09,9.31,1.48a159.93,159.93,0,0,0,16.66,1.39c2.45.05,4.69.05,6.68,0l2.79-.15,2.35-.24a27.72,27.72,0,0,0,3.26-.59Z"/><path class="cls-8" d="M321.39,297.56l-3.74-1.06-9.85-2.86c-2-.59-4.25-1.2-6.59-1.81s-4.83-1.21-7.41-1.79-5.25-1.1-8-1.52a76,76,0,0,0-8.3-.91,54.84,54.84,0,0,0-8.31.05,42.88,42.88,0,0,0-7.9,1.34c-.64.14-1.24.37-1.85.56s-1.21.38-1.79.63l-1.72.69-1.63.8a15.19,15.19,0,0,0-1.54.85c-.5.3-1,.58-1.47.88-.9.68-1.84,1.24-2.62,1.94a30,30,0,0,0-2.26,2,26.6,26.6,0,0,0-1.91,1.93c-.55.65-1.12,1.22-1.57,1.81l-1.24,1.62c-.75,1-1.24,1.82-1.63,2.36l-.57.85L240,305c.34-.57.74-1.47,1.44-2.5l1.13-1.72c.42-.63,1-1.25,1.47-1.94a25.74,25.74,0,0,1,1.81-2.1,25.34,25.34,0,0,1,2.22-2.15c.77-.75,1.71-1.37,2.61-2.1.48-.34,1-.65,1.48-1a14.55,14.55,0,0,1,1.57-.95,32.61,32.61,0,0,1,7.17-3,40.16,40.16,0,0,1,8.17-1.53,55.41,55.41,0,0,1,8.55-.12,78.65,78.65,0,0,1,8.47,1c2.77.44,5.46,1.06,8.06,1.68s5.06,1.35,7.39,2.06,4.53,1.42,6.54,2.09c4,1.34,7.34,2.62,9.67,3.46Z"/><path class="cls-8" d="M369.88,316.82h-1.44c-.94,0-2.32,0-4.08-.05-3.51-.12-8.54-.29-14.54-.85-3-.27-6.25-.62-9.68-1s-7.05-.94-10.76-1.63q-2.79-.5-5.64-1.09c-1.91-.37-3.83-.85-5.76-1.31-3.84-1-7.74-2.05-11.55-3.42-1.92-.67-3.77-1.37-5.65-2.07s-3.73-1.33-5.62-1.89A92.86,92.86,0,0,0,284,300.6a55.94,55.94,0,0,0-10.64-1,35.79,35.79,0,0,0-4.93.39,33.15,33.15,0,0,0-4.52.95,15,15,0,0,0-2.05.7l-1.95.73c-1.2.62-2.38,1.16-3.42,1.76L253.69,306c-.82.66-1.55,1.29-2.22,1.85l-.95.8c-.27.28-.53.54-.76.79l-1.21,1.23-1,1,.94-1.1,1.13-1.32.72-.83.91-.85c.65-.6,1.36-1.28,2.16-2l2.79-2c1-.67,2.21-1.27,3.41-2,.63-.29,1.3-.54,2-.82a16.45,16.45,0,0,1,2.1-.78,31,31,0,0,1,4.63-1.11,37.27,37.27,0,0,1,5.07-.56,52.77,52.77,0,0,1,10.93.78,87,87,0,0,1,11.36,2.78c1.91.56,3.79,1.25,5.7,1.89s3.77,1.39,5.64,2c3.74,1.36,7.59,2.44,11.39,3.43s7.58,1.83,11.27,2.52,7.25,1.33,10.65,1.88,6.63,1,9.61,1.32c6,.7,10.95,1.21,14.45,1.47l4.07.29Z"/><rect class="cls-9" x="246.26" y="319.35" width="172.43" height="2.89" transform="translate(664.94 641.6) rotate(180)"/><path class="cls-8" d="M301.71,302.56l-1.52-.62c-.47-.21-1.07-.42-1.74-.67s-1.45-.52-2.29-.79-1.76-.56-2.74-.84-2-.51-3.09-.81-2.19-.52-3.33-.72-2.31-.42-3.48-.58-2.34-.31-3.49-.45-2.29-.22-3.4-.23-2.17-.06-3.18-.05-2,.1-2.85.15-1.69.17-2.4.31-1.33.24-1.82.38l-1.57.45,1.52-.61c.49-.19,1.11-.32,1.81-.53s1.52-.32,2.4-.48,1.86-.24,2.88-.29a31.09,31.09,0,0,1,3.23-.07c1.13,0,2.28.11,3.46.17s2.36.21,3.54.41,2.35.39,3.5.64,2.28.52,3.37.78,2.12.59,3.08.94,1.89.64,2.72,1a22.45,22.45,0,0,1,2.25,1c.66.3,1.24.56,1.69.81Z"/><path class="cls-11" d="M214.33,320.11c2-2.51,20.84-11.21,34.66,0"/><path class="cls-12" d="M214.33,321.44c2,1.15,20.84,5.13,34.66,0"/><path class="cls-13" d="M232.63,309.13l-2,0c.22-18.33-5.6-41-15.58-60.73-11.15-22-26.23-38.12-42.47-45.4l.82-1.82c16.66,7.46,32.08,23.91,43.43,46.31C227,267.44,232.86,290.49,232.63,309.13Z"/><path class="cls-14" d="M230.63,309.16c-1-25.06,18.31-78.45,69.13-94.33l.6,1.91c-49.79,15.56-68.69,67.82-67.73,92.34Z"/><path class="cls-15" d="M221.49,158.71a4.13,4.13,0,1,1-4.12-4.12A4.12,4.12,0,0,1,221.49,158.71Z"/><path class="cls-15" d="M317.81,101a3.61,3.61,0,1,1-3.6-3.61A3.6,3.6,0,0,1,317.81,101Z"/><circle class="cls-15" cx="383.75" cy="186.53" r="3.61"/><path class="cls-15" d="M337.39,271a2.06,2.06,0,1,1-2.06-2.06A2.06,2.06,0,0,1,337.39,271Z"/><path class="cls-15" d="M116.92,116.47a6.19,6.19,0,1,1-6.18-6.18A6.18,6.18,0,0,1,116.92,116.47Z"/><path class="cls-15" d="M71.59,193.22a2.06,2.06,0,1,1-2.06-2.06A2.06,2.06,0,0,1,71.59,193.22Z"/><path class="cls-15" d="M49.44,280.28a2.06,2.06,0,1,1-2.06-2.06A2.06,2.06,0,0,1,49.44,280.28Z"/><path class="cls-16" d="M248.28,166.48l-13.62,3.25a1.15,1.15,0,0,1-1.42-1.4l3-13.68Z"/><path class="cls-17" d="M236.61,169.26l11.67-2.78-12-11.83-1,4.48C239.3,161.09,239.73,166,236.61,169.26Z"/><path class="cls-16" d="M272.65,115.33a2.41,2.41,0,0,1,2.47-.62,18.71,18.71,0,0,1,7.38,4.67,18.19,18.19,0,0,1,4.74,7.21,2.45,2.45,0,0,1-.59,2.47l-36.83,37.52a1.59,1.59,0,0,1-1.63.39,20.08,20.08,0,0,1-7.59-4.75,22.07,22.07,0,0,1-5.1-7.74,1.57,1.57,0,0,1,.35-1.67Z"/><path class="cls-18" d="M276.15,125.85c4,3.9,5.37,7,5.76,8l2.74-2.78c-.39-1-1.8-4.13-5.77-8a24.77,24.77,0,0,0-8.23-5.71l-2.73,2.79A24.6,24.6,0,0,1,276.15,125.85Z"/><path class="cls-19" d="M270,117.55s3.71,1,8.6,5.82,5.89,8.4,5.89,8.4l-31.41,32a28.86,28.86,0,0,1-8.21-5.86,32.79,32.79,0,0,1-6.29-8.36Z"/><path class="cls-20" d="M254.27,162.53a29,29,0,0,1-8.21-5.86,32.89,32.89,0,0,1-6.28-8.36l.94-1a32.53,32.53,0,0,0,6.28,8.37,29,29,0,0,0,8.21,5.86Z"/><path class="cls-20" d="M255.92,160.86a28.94,28.94,0,0,1-8.21-5.87,32.4,32.4,0,0,1-6.28-8.36l1.27-1.3a32.69,32.69,0,0,0,6.28,8.36,28.94,28.94,0,0,0,8.21,5.87Z"/><path class="cls-20" d="M282.75,133.52a28.88,28.88,0,0,0-6-8.09,32.68,32.68,0,0,0-8.48-6.13c-.07-.08-.93,1-.93,1a32.55,32.55,0,0,1,8.47,6.13,28.76,28.76,0,0,1,6,8.1Z"/><path class="cls-20" d="M281.11,135.2a28.92,28.92,0,0,0-6-8.1,32.55,32.55,0,0,0-8.47-6.13l-1.28,1.3a32.68,32.68,0,0,1,8.48,6.13,29,29,0,0,1,6,8.1Z"/><path class="cls-21" d="M248.19,167a1.59,1.59,0,0,0,1.63-.39l2.9-3,.34.15,31.41-32a3.77,3.77,0,0,0-.12-.36l2.3-2.35a2.45,2.45,0,0,0,.59-2.47,15.64,15.64,0,0,0-1.56-3.29L244.5,165.24A18.59,18.59,0,0,0,248.19,167Z"/><path class="cls-22" d="M238.73,149.87l-2.88,2.94a1.57,1.57,0,0,0-.35,1.67,19.51,19.51,0,0,0,.93,2.09l40.43-41.18a13.27,13.27,0,0,0-1.74-.68,2.41,2.41,0,0,0-2.47.62l-2.3,2.34a3.3,3.3,0,0,0-.37-.12l-31.42,32Z"/><path class="cls-23" d="M233.4,168.42l1.9-8.38S235.46,166.07,233.4,168.42Z"/><polygon class="cls-24" points="1.53 187.13 23.32 190.57 22.04 213.65 0 214.87 1.53 187.13"/><polygon class="cls-24" points="45.65 189.46 23.32 190.57 22.05 213.65 44.12 217.21 45.65 189.46"/><polyline class="cls-25" points="41.01 215.7 43.12 216.07 44.37 190.58 42.37 190.73"/><polygon class="cls-26" points="40.43 190.63 42.43 190.48 41.18 215.97 39.07 215.6 40.43 190.63"/><polyline class="cls-25" points="3.08 213.55 0.94 213.7 2.35 188.22 4.32 188.57"/><polygon class="cls-26" points="6.26 188.68 4.29 188.32 2.88 213.8 5.02 213.65 6.26 188.68"/><polygon class="cls-27" points="6.25 188.42 23.26 191.51 22.09 212.71 4.84 213.91 6.25 188.42"/><path class="cls-28" d="M19.6,212.89l2.49-.18,1.17-21.2-17-3.09-.16,3C17.44,189.32,21.44,199.53,19.6,212.89Z"/><line class="cls-29" x1="18.09" y1="209.52" x2="9.13" y2="210.06"/><line class="cls-29" x1="18.26" y1="206.41" x2="9.32" y2="206.54"/><line class="cls-29" x1="18.43" y1="203.3" x2="9.52" y2="203.02"/><line class="cls-29" x1="18.6" y1="200.2" x2="9.68" y2="199.98"/><line class="cls-29" x1="18.77" y1="197.09" x2="9.87" y2="196.53"/><line class="cls-29" x1="18.95" y1="193.98" x2="10.08" y2="192.87"/><polygon class="cls-27" points="40.52 190.31 23.27 191.51 22.1 212.71 39.11 215.8 40.52 190.31"/><line class="cls-29" x1="26.43" y1="209.98" x2="35.28" y2="211.5"/><line class="cls-29" x1="26.61" y1="206.87" x2="35.48" y2="207.98"/><line class="cls-29" x1="26.78" y1="203.76" x2="35.67" y2="204.46"/><line class="cls-29" x1="26.95" y1="200.66" x2="35.84" y2="201.43"/><line class="cls-29" x1="27.12" y1="197.55" x2="36.03" y2="197.97"/><line class="cls-29" x1="27.29" y1="194.45" x2="36.23" y2="194.32"/><path class="cls-28" d="M23.27,191.51l-1.17,21.2,2.5.46c-1.46-10.71,1.89-25.84,15.63-17.54l.29-5.32Z"/><path class="cls-25" d="M22.1,212.71a98.16,98.16,0,0,1,1.17-21.2,83.78,83.78,0,0,1,0,10.63A85.62,85.62,0,0,1,22.1,212.71Z"/><polygon class="cls-30" points="24.77 213.19 24.95 209.11 24.19 209.88 23.38 209.12 23.28 212.95 24.77 213.19"/><polygon class="cls-31" points="125.44 184.35 103.51 159.79 105.11 157.08 107.41 155.03 109.95 154.05 131.87 178.6 125.44 184.35"/><path class="cls-32" d="M107.19,155.22l-2.08,1.86-1.6,2.71,21.93,24.56,3-2.69C118.78,175.32,108.52,162.76,107.19,155.22Z"/><polygon class="cls-33" points="130.19 180.1 107.69 154.91 107.41 155.03 107.17 155.24 129.73 180.51 130.19 180.1"/><polygon class="cls-33" points="105.11 157.08 104.91 157.42 127.39 182.6 127.85 182.2 105.28 156.93 105.11 157.08"/><path class="cls-34" d="M125.44,184.35l8.23,3.28a.37.37,0,0,0,.5-.44l-2.3-8.59-2.35,1.12-2.4,2.15Z"/><path class="cls-35" d="M134.13,187a19.14,19.14,0,0,1-6.35-5.76l-.66.6-1.68,2.48,8.23,3.28a.37.37,0,0,0,.5-.44Z"/><path class="cls-36" d="M134.17,187.19l-.8-3a3.76,3.76,0,0,0-2.77,2.19l3.07,1.22A.37.37,0,0,0,134.17,187.19Z"/><path class="cls-37" d="M183.36,136.23c3.44-.95,7-1.75,10.39-3a.19.19,0,0,0,.12-.26.3.3,0,0,0,0-.1c-.08-4.42.24-8.89.37-13.31.17-5.81.39-11.63.38-17.44a6.74,6.74,0,0,0-.12-2.37.2.2,0,0,0-.19-.13.21.21,0,0,0-.19.06c-.3.29-1-.1-1.23-.27a3.33,3.33,0,0,1-1.38-1.81.17.17,0,0,0-.08-.16.18.18,0,0,0-.21,0c-3.12,1-6.24,2-9.35,3-3.84,1.26-7.78,2.43-11.5,4a.19.19,0,0,0-.13.2c-.46,5.31-.4,10.7-.49,16-.07,4.85-.29,9.74-.1,14.58-.41,1.63,1.55,4.24,3.32,3.65a24.06,24.06,0,0,0,3.74-.84C178.94,137.43,181.15,136.83,183.36,136.23Zm10.12-35.9a.76.76,0,0,1,0-.15,1.31,1.31,0,0,0,.65,0c0,.3,0,.74,0,1,0,1,0,1.91,0,2.86,0,2.89-.11,5.78-.19,8.67-.15,5.89-.35,11.77-.51,17.66,0,.73,0,1.46,0,2.2a2,2,0,0,1-.75-.24.3.3,0,0,0,0-.1c0-2.16.11-4.35.19-6.51.1-3.27.22-6.54.34-9.82C193.38,110.73,193.11,105.5,193.48,100.33Zm-.65,2.32c0-.9,0-1.81.07-2.71l.13.07a13.09,13.09,0,0,0-.11,2.58c0,1.71,0,3.42-.06,5.13,0,2.39,0,4.78-.11,7.18-.21,5.67-.47,11.35-.57,17v0a3.11,3.11,0,0,1-.23-.28.18.18,0,0,0,0-.13C192.11,121.93,192.59,112.28,192.83,102.65Zm-1.38-4v-.13l.18.28a.64.64,0,0,0,0,.07c-.12,1.25-.08,2.54-.11,3.8-.08,2.82-.16,5.63-.23,8.45l0,1C191.27,107.67,191.27,103.16,191.45,98.67Zm-.24,31.52c.15-1.32.11-2.69.15-4l.24-8.55c.15-5.63.28-11.26.45-16.89,0-.46,0-.94,0-1.4.11.1.23.21.36.31h0c-.23,2.29-.13,4.65-.18,6.95s-.05,4.54-.16,6.8c-.26,5.15-.35,10.32-.51,15.48l-.06,2.12c-.12-.24-.23-.48-.34-.72A.16.16,0,0,0,191.21,130.19Zm-20.4,6a36.69,36.69,0,0,1,6.06-1.57c1.38-.34,2.75-.8,4.12-1.18,2.09-.59,4.19-1.16,6.29-1.74,1.18-.32,2.41-.58,3.56-1a5.77,5.77,0,0,0,.27.56c-3.49.9-6.93,2-10.39,3.06a88.65,88.65,0,0,1-9.64,2.52c-.11-.21-.22-.41-.32-.62Zm-.22-.44h0c-.07-.17-.13-.33-.18-.49,3.38-.76,6.71-1.85,10.05-2.78,2.16-.6,4.33-1.2,6.5-1.77a19.2,19.2,0,0,1,3.52-.84c.06.12.12.25.17.37-1.16.44-2.43.69-3.63,1L180.71,133c-1.37.39-2.73.83-4.11,1.17A37.39,37.39,0,0,0,170.59,135.72Zm-.33-14.87c.08-5.35,0-10.76.47-16.09,3.72-1.58,7.64-2.75,11.47-4,2.93-1,5.86-1.87,8.79-2.82a41,41,0,0,0-.11,4.43c0,3.08-.07,6.17-.1,9.25-.05,5.63.06,11.3-.31,16.92a7.53,7.53,0,0,1-.07.83,19.93,19.93,0,0,0-3.25.76c-2.21.58-4.41,1.19-6.61,1.8-3.45,1-6.9,2.09-10.4,2.87C170,130.16,170.18,125.48,170.26,120.85Zm-.16,15a6.88,6.88,0,0,0,1.23,2.11A3.34,3.34,0,0,1,170.1,135.84Zm2,2H172a3.09,3.09,0,0,1-.64-.66,91.24,91.24,0,0,0,9.45-2.49c3.5-1,7-2.18,10.53-3.09a4.3,4.3,0,0,0,.47.63,24.25,24.25,0,0,0-2.95.82L182.22,135,175.5,137A17.8,17.8,0,0,1,172.09,137.89Zm.91.45h-.08a.18.18,0,0,0-.12-.07c.85-.17,1.73-.52,2.51-.74l6.63-1.91c2.24-.66,4.49-1.31,6.73-1.95a20.72,20.72,0,0,1,3.51-1,.23.23,0,0,0,.1,0,2.41,2.41,0,0,0,.65.3c-3.13,1.14-6.47,1.88-9.67,2.76-2.21.61-4.41,1.2-6.63,1.77A25.07,25.07,0,0,1,173,138.34Z"/><path class="cls-38" d="M329.67,117.73a13.33,13.33,0,0,0,10.95,1c4-1.52,4.82-5.18,3.43-8.36l0-.13c.92-9.42.4-19,.13-28.52,3.79.37,7.63-.16,11.4.53a.7.7,0,0,0,.81-.77s0,0,0-.07c.27-2.71,1.23-5.28,1.3-8a.62.62,0,0,0-.83-.6.66.66,0,0,0-.25,0c-2.63,0-5.29-.1-7.92-.26-1.85-.11-4-.51-5.63.57a.62.62,0,0,0-.3.59,1.1,1.1,0,0,0,0,.18c0,2.3,0,4.6.1,6.9a.61.61,0,0,0,0,.7c.25,8.93.73,17.93.05,26.79a.65.65,0,0,0-.43-.55c-4.32-1.59-10.08-1.86-13.63,1.52C326,111.86,326.42,115.7,329.67,117.73Zm19.58-44c2.37.15,4.77.2,7.14.23-.17,2.31-.89,4.54-1.19,6.84-3.66-.53-7.36,0-11-.46-.05-2.15-.09-4.29-.09-6.43C345.59,73.21,347.66,73.68,349.25,73.77Zm-18.37,35.42c2.88-2,7.17-1.63,10.45-.6a9.28,9.28,0,0,1,1.51,2l0,0a4.85,4.85,0,0,1,.53,3.53c-.48,2-2.61,3.29-4.5,3.73a12.51,12.51,0,0,1-8.57-1.25C327,114.75,328.17,111.06,330.88,109.19Z"/><path class="cls-39" d="M93.67,81.7a13.37,13.37,0,0,0,11,1c4-1.52,4.81-5.19,3.43-8.37a.51.51,0,0,0,0-.13c.93-9.41.41-19,.14-28.52,3.79.37,7.62-.16,11.39.54a.7.7,0,0,0,.81-.78.14.14,0,0,0,0-.06c.26-2.71,1.23-5.29,1.3-8a.62.62,0,0,0-.83-.6.7.7,0,0,0-.25,0c-2.64,0-5.29-.11-7.92-.26-1.86-.11-4-.51-5.64.56a.63.63,0,0,0-.29.6.48.48,0,0,0,0,.18q0,3.43.11,6.9a.62.62,0,0,0,0,.7c.25,8.93.73,17.93,0,26.79a.65.65,0,0,0-.44-.55c-4.31-1.6-10.07-1.87-13.62,1.52C90,75.83,90.42,79.68,93.67,81.7Zm19.57-43.95c2.37.14,4.77.2,7.15.22-.17,2.32-.9,4.54-1.19,6.84-3.67-.52-7.36,0-11-.45q-.09-3.22-.1-6.44C109.58,37.19,111.65,37.65,113.24,37.75ZM94.88,73.16c2.88-2,7.16-1.63,10.45-.59a8.8,8.8,0,0,1,1.51,2s0,0,0,0a4.88,4.88,0,0,1,.54,3.54c-.48,2-2.61,3.28-4.5,3.73a12.56,12.56,0,0,1-8.57-1.25C91,78.72,92.17,75,94.88,73.16Z"/><path class="cls-40" d="M439.85,103.66a5.59,5.59,0,0,0-6.2-3.13A6.24,6.24,0,0,0,432.47,94c-2.09-2.21-5.3-1.31-7.56.19-.34-5.92-8.13-5.94-11.11-1.59-1-2-2.68-3.94-5.1-3.56a6.25,6.25,0,0,0-4.79,4.48,5.42,5.42,0,0,0-6.28-2.22c-3.1,1-3.87,3.59-4.18,6.32-2.16-2.79-6-4.21-8.78-1-1.84,2.16-.48,4.77,1.57,6.23a4.72,4.72,0,0,0-4,5.46c.36,3,3.36,4.51,6.13,4.88-2.4,1.51-3.94,3.94-1.39,6.48s6.59,2.33,9.73,1.25c-1.07,3.45-4.06,5.88-6.75,8.15a.55.55,0,0,0-.22.47c-.37.45,0,1.3.63,1,5.3-2,10-4,13.7-8.29,2.26,4,7.18,3.16,9.63-.34,1.37,1.55,3,3,5.11,3.24,1.92.17,4-1.79,5-3.44,2.12,1.6,6.51,1,6.86-1.56,5,2.91,11.74-6.49,6.71-10.29C439.71,108.71,441.08,106.24,439.85,103.66Zm-3.56,5.41a.53.53,0,0,0-.34.55.62.62,0,0,0,.12,1c5.1,2.77-1.66,11.79-5.5,7.86a.56.56,0,0,0-.63-.15.6.6,0,0,0-.67.79c1,2.76-3.71,2.78-5,1.31a.55.55,0,0,0-.6-.18.56.56,0,0,0-.64.31c-.77,1.54-2.41,3.21-4.21,3.37s-3.69-2.26-4.74-3.5a.54.54,0,0,0-.61-.18.57.57,0,0,0-.41.31c-1.9,3.52-6.38,4.65-8.2.44a.51.51,0,0,0-.63-.32.52.52,0,0,0-.61.19c-3,3.66-6.57,5.69-10.67,7.37,2.4-2.15,4.6-4.59,5.26-7.82,0,0,0-.07,0-.11.59-.42,0-1.42-.75-1.06a10.55,10.55,0,0,1-7.12.76c-1.75-.39-3.69-1.72-3.33-3.78.22-1.22,1.91-1.88,2.87-2.36a.56.56,0,0,0,.32-.61A.65.65,0,0,0,390,112c-2.32.09-4.82-.69-6.09-2.76-1.72-2.8,1.18-5.63,4-5.07a.64.64,0,0,0,.66-.26l.21,0c.82.13,1.17-1.12.34-1.25-2.05-.32-4.75-2.37-3.73-4.75.67-1.58,2.78-2.12,4.29-1.74a6.06,6.06,0,0,1,3.61,3.57v.08c-.06.83,1.21.83,1.29,0a.43.43,0,0,0,0-.28c.18-2.67.13-5,2.66-6.68s5.14.13,6.3,2.5a.63.63,0,0,0,1.17-.2.54.54,0,0,0,.24-.39,5.62,5.62,0,0,1,2.88-4.2c2.6-1.45,4.42,1.53,5.25,3.49a.51.51,0,0,0,.67.3.53.53,0,0,0,.67-.3c2-4.22,9.57-5,9.19,1a.56.56,0,0,0,.35.58.7.7,0,0,0,1,.1c1.84-1.53,4.55-2.61,6.61-.85,1.54,1.32,1.57,4.07.6,5.69a.6.6,0,0,0,.17.82.57.57,0,0,0,.78.57,4.34,4.34,0,0,1,5.36,1.78C439.87,106,438.4,108.13,436.29,109.07Z"/><path class="cls-41" d="M10.9,110.81c.65-2.52,2.57-4,4.7-3.73a7.26,7.26,0,0,1,.18-6.57C17.23,98.1,20,98.67,22,99.93c-.44-5.91,5.94-6.7,8.91-2.68.59-2,1.73-4.18,3.75-4s3.65,1.84,4.47,4c.95-2.12,2.65-3.39,4.88-2.82,2.66.68,3.6,3.17,4.18,5.85,1.44-3,4.44-4.77,7.08-1.85,1.77,2,1,4.7-.53,6.35,2.11.15,3.85,2.13,3.91,5a5.7,5.7,0,0,1-4.44,5.46c2.16,1.26,3.71,3.51,1.93,6.29-1.68,2.62-5.12,3-7.83,2.21,1.3,3.32,4,5.43,6.52,7.42a.58.58,0,0,1,.24.44c.36.41.18,1.29-.39,1.11-4.58-1.42-8.65-3-12.23-6.86-1.36,4.21-5.5,3.85-7.93.62-.93,1.67-2.08,3.32-3.8,3.72-1.55.36-3.47-1.38-4.51-2.91-1.55,1.8-5.21,1.68-5.81-.86-3.75,3.38-10.41-5.28-6.75-9.55A5.17,5.17,0,0,1,10.9,110.81Zm3.57,5a.53.53,0,0,1,.34.52.69.69,0,0,1,0,1c-3.84,3.25,2.78,11.54,5.45,7.26a.41.41,0,0,1,.51-.22.57.57,0,0,1,.64.71c-.47,2.84,3.37,2.4,4.24.82a.41.41,0,0,1,.47-.25.44.44,0,0,1,.56.25c.81,1.45,2.36,2.94,3.85,2.92s2.76-2.6,3.47-3.94a.39.39,0,0,1,.47-.24.49.49,0,0,1,.38.27c2,3.3,5.79,4,6.77-.39.07-.32.28-.42.48-.38a.39.39,0,0,1,.52.13,21.12,21.12,0,0,0,9.64,6.25A15.22,15.22,0,0,1,47,123.3s0-.07,0-.1c-.54-.36-.14-1.42.49-1.13a7.37,7.37,0,0,0,5.93.05,3.5,3.5,0,0,0,2.26-4.1c-.32-1.18-1.79-1.66-2.63-2a.6.6,0,0,1-.34-.57c-.53-.17-.6-1.22,0-1.27a5.17,5.17,0,0,0,4.66-3.34c1.07-3-1.64-5.47-3.87-4.64A.48.48,0,0,1,53,106l-.16.06c-.66.21-1.1-1-.44-1.21C54,104.29,56,102,54.86,99.73a2.89,2.89,0,0,0-3.72-1.3c-1.32.59-2.19,2.33-2.54,3.9l0,.08c.15.81-.9.94-1.06.15a.5.5,0,0,1-.05-.28c-.47-2.63-.72-5-3-6.36s-4.19.63-4.86,3.1c-.17.62-.82.42-1-.08a.54.54,0,0,1-.23-.36,5.78,5.78,0,0,0-2.87-3.88c-2.3-1.18-3.44,2-3.88,4-.08.34-.3.44-.52.38a.43.43,0,0,1-.58-.24c-2.16-4-8.45-4-7.41,1.88a.58.58,0,0,1-.22.61.51.51,0,0,1-.79.19c-1.7-1.33-4.05-2.13-5.52-.17-1.1,1.46-.8,4.19.19,5.71a.67.67,0,0,1,0,.82c0,.38-.18.77-.58.65a3.28,3.28,0,0,0-4.17,2.29A3.85,3.85,0,0,0,14.47,115.82Z"/><path class="cls-42" d="M225.87,27.3c-8,3.62-12.55,12.17-13.37,20.63A28.21,28.21,0,0,0,218,67.29c2.62,3.63,5.72,6.86,8.21,10.58,2.68,4,3.15,8.7,3.19,13.4a.58.58,0,0,0-.38.58c0,4.24.24,11.73,6,11.89s5.63-7.54,5.58-11.88a.71.71,0,0,0,.18-.4c.7-6.73,1.61-13.21,5.39-19,3.1-4.71,6.64-8.7,8.45-14.14,3-9,2.5-21.19-4.75-28C243.61,24.39,233.43,23.9,225.87,27.3Zm9.61,75.11c-2.16.27-3.41-1-4.14-2.74,2.35.37,4.77-.54,7.06.15l.14,0A3.75,3.75,0,0,1,235.48,102.41Zm3.44-3.76a.68.68,0,0,0-.17-.09c-2.43-.73-4.91.3-7.35-.19a.62.62,0,0,0-.47.08,17,17,0,0,1-.41-2.28c2.82,0,5.62.36,8.44.39a.73.73,0,0,0,.3-.07A14.76,14.76,0,0,1,238.92,98.65Zm.4-3.28a.64.64,0,0,0-.36-.12c-2.86,0-5.7-.34-8.55-.38-.06-.86-.07-1.67-.08-2.37,3,.12,6-.13,9-.19C239.33,93.23,239.36,94.29,239.32,95.37Zm-5.43-21.91c-.86-5.67-2.23-12-5.1-17-.18-.32-.4-.75-.66-1.23a4.69,4.69,0,0,0,2.71-2.2,6,6,0,0,0,2.36,1.32,4.11,4.11,0,0,0,3.47-1.05,4.64,4.64,0,0,0,3.18,1.61,3.39,3.39,0,0,0,0,.85,2.11,2.11,0,0,0,1,1.4,8.58,8.58,0,0,0-1.54,3.82,57.68,57.68,0,0,0-1.05,9.64c-.19,6.84-1.12,13.64-1.17,20.5-1.31,0-2.62.11-3.94.14A48.23,48.23,0,0,0,233.89,73.46Zm3.21-25.32c.38-1.15.8.1.67.63a7.43,7.43,0,0,1-.65,1.57l-.33.6a2.73,2.73,0,0,1-.1-.48A5.61,5.61,0,0,1,237.1,48.14Zm15.84,11.08c-2,5.68-6.48,9.85-9.38,15-2.72,4.88-3.4,10.59-4,16.07a.6.6,0,0,0-.31.55V91l-.83,0c.05-6.29.71-12.55,1.11-18.83.2-3.19.37-6.29.85-9.47a9.9,9.9,0,0,1,1.79-5.07c1.41.34,3,.05,3.29-1.22.16-.69.08-1.94-.94-1.9a4.48,4.48,0,0,0-2.74,1.6,1.58,1.58,0,0,1-.7-1.32,5.63,5.63,0,0,0,3.83-2.92c.38-.69.88-2.52-.24-2.89-2.19-.74-4,2.22-4.62,4.62a3.56,3.56,0,0,1-2.53-1.27,7,7,0,0,0,1.65-4.2c0-.83-.46-2.19-1.56-2.08s-1.58,1.09-1.92,2.09a5.28,5.28,0,0,0,.22,4,4.59,4.59,0,0,1-.36.41c-1.11,1.21-2.84.27-4.22-.89a4.93,4.93,0,0,0,.08-1.84,4.52,4.52,0,0,0-1.5-3.23c-.8-.57-2.26.24-2.43,1.13-.26,1.34.55,2.4,1.39,3.36.26.31.6.68,1,1v0A3,3,0,0,1,227.47,54c-1.22-2.15-2.94-4.56-5-4a1.82,1.82,0,0,0-1.07,2.52c.78,1.54,2.62,2.2,4.19,2.68a4.46,4.46,0,0,0,1.12.19c.13.26.26.5.37.7,2.69,4.81,4.06,10.19,5.16,15.55A46.33,46.33,0,0,1,232,90.9a.73.73,0,0,0,0,.33c-.41,0-.83,0-1.25,0-.06-5.6-.94-10.54-4.21-15.23-3.42-4.92-8-9-10.51-14.53A26.76,26.76,0,0,1,219.32,34c6.34-7.78,18-9.76,26.69-4.95C256.26,34.75,256.39,49.52,252.94,59.22Zm-9.46-2.8.14-.12C244.37,55.72,244.36,56.28,243.48,56.42Zm-2.11-3a7.66,7.66,0,0,1,1.9-2.63c1.1-1,.46.65.28,1A4.11,4.11,0,0,1,241.37,53.39Zm-11.15-2.8c-.29-.29-.53-.56-.71-.76l-.41-.59c-.4-.45-.22-.81.54-1.1a4.25,4.25,0,0,1,.42,1.26A6.51,6.51,0,0,1,230.22,50.59Zm-4.31,3.29-.41-.11a9.69,9.69,0,0,1-1.69-.73l-.41-.25c-.71-.32-.8-.83-.25-1.54C224.24,51.43,225.17,52.64,225.91,53.88Z"/><path class="cls-43" d="M437.16,243.73c-3.56.71-5.29,3.83-6.73,6.86-1.1-2.5-2.39-5.72-5-6.81a4.54,4.54,0,0,0-6.21,2.74c-1.09,3.16.45,7,1.76,9.85a129,129,0,0,0,8.27,14.33.46.46,0,0,0,.16.23.67.67,0,0,0,1-.05l0,0a109.18,109.18,0,0,0,9.46-14.36c1.5-2.79,3-6.06,2.7-9.32C442.33,244.46,439.69,243.23,437.16,243.73Zm3.92,6.47c-.71,3.25-2.52,6.21-4.19,9a113.2,113.2,0,0,1-6.95,10.16,100.63,100.63,0,0,1-5.45-9c-1.59-3.17-3.47-6.18-4.12-9.72-.54-2.95.36-6.88,4.28-5.78,2.62.74,3.89,4.72,4.9,6.92a.5.5,0,0,0,.42.33c.2.45.87.67,1.13.11,1.3-2.8,2.65-6.16,5.87-7.13C440.83,243.93,441.73,247.26,441.08,250.2Z"/><path class="cls-44" d="M167.31,13c-3.57.7-5.3,3.82-6.74,6.86-1.1-2.5-2.38-5.72-5-6.82a4.55,4.55,0,0,0-6.21,2.75c-1.09,3.16.45,7,1.76,9.85a127.93,127.93,0,0,0,8.27,14.32.63.63,0,0,0,.16.24.67.67,0,0,0,1,0l0,0a109.14,109.14,0,0,0,9.47-14.35c1.49-2.79,3-6.06,2.69-9.32C172.47,13.67,169.83,12.45,167.31,13Zm3.91,6.47c-.71,3.24-2.52,6.2-4.19,9a113.2,113.2,0,0,1-6.95,10.16c-1.9-3-3.84-5.85-5.45-9s-3.46-6.17-4.12-9.71c-.54-2.95.36-6.89,4.28-5.78,2.62.73,3.9,4.72,4.9,6.92a.51.51,0,0,0,.42.33.61.61,0,0,0,1.13.1c1.31-2.8,2.65-6.15,5.87-7.12C171,13.15,171.87,16.48,171.22,19.42Z"/><path class="cls-45" d="M426.51,195.11c3.31-.49,7.22-2.49,9-5.42,5.26,0,11.27.59,15.65-2.83a7.05,7.05,0,0,0,0-12.07c-4.16-3.25-9.83-3.56-14.82-2.52-2.57.53-5.33,1.66-6.95,3.8a11.47,11.47,0,0,0-1.87,7.38,8.55,8.55,0,0,0,3.05,5.41c-.13,2.2-2.29,4.28-4,5.48l0,0-.22,0C425.86,194.49,426.06,195.18,426.51,195.11Zm4.77-6.28v-.05a.32.32,0,0,0-.11-.32,7.88,7.88,0,0,1-2.93-6.91,8.7,8.7,0,0,1,4.13-7.08,18,18,0,0,1,8.66-2,16.43,16.43,0,0,1,7.35,1.47,9.84,9.84,0,0,1,5.05,4.79c1.19,2.81-.41,5.56-2.5,7.41-4.1,3.63-10.55,2.85-15.62,2.84h-.06a.31.31,0,0,0-.24.17c-1.33,2.34-4.15,4-6.87,4.86C429.7,192.66,431.18,190.81,431.28,188.83Z"/><path class="cls-46" d="M320.63.35c-3.57.7-5.3,3.82-6.74,6.86-1.1-2.5-2.38-5.72-5-6.82a4.55,4.55,0,0,0-6.21,2.75c-1.08,3.16.45,7,1.76,9.85a129.5,129.5,0,0,0,8.27,14.32.63.63,0,0,0,.16.24.66.66,0,0,0,1-.06,0,0,0,0,0,0,0,109.14,109.14,0,0,0,9.47-14.35c1.49-2.79,3-6.07,2.69-9.33C325.79,1.07,323.15-.15,320.63.35Zm3.91,6.47c-.71,3.24-2.52,6.2-4.19,9a111.15,111.15,0,0,1-7,10.16c-1.9-3-3.84-5.85-5.45-9s-3.46-6.18-4.12-9.72c-.54-2.94.36-6.88,4.28-5.77,2.62.73,3.9,4.72,4.9,6.92a.53.53,0,0,0,.42.33c.2.45.88.66,1.13.1,1.31-2.8,2.65-6.15,5.87-7.12C324.29.55,325.19,3.88,324.54,6.82Z"/></g></g></svg>