<?xml version="1.0" standalone="no"?>
<!DOCTYPE svg PUBLIC "-//W3C//DTD SVG 20010904//EN"
 "http://www.w3.org/TR/2001/REC-SVG-20010904/DTD/svg10.dtd">
<svg version="1.0" xmlns="http://www.w3.org/2000/svg"
 width="500.000000pt" height="500.000000pt" viewBox="0 0 500.000000 500.000000"
 preserveAspectRatio="xMidYMid meet">
<metadata>
Created by potrace 1.12, written by Peter Selinger 2001-2015
</metadata>
<g transform="translate(0.000000,500.000000) scale(0.100000,-0.100000)"
fill="#000000" stroke="none">
<path d="M0 2500 l0 -2500 2500 0 2500 0 0 2500 0 2500 -2500 0 -2500 0 0
-2500z m2250 1329 c0 -6 9 -8 20 -4 11 4 20 2 20 -4 0 -6 7 -11 16 -11 9 0 12
5 8 12 -5 8 0 9 16 5 13 -3 30 -1 37 5 22 18 44 2 38 -29 -3 -16 -2 -22 1 -15
3 6 12 12 20 12 12 0 12 -4 2 -20 -14 -22 -3 -39 14 -22 15 15 32 16 23 2 -7
-11 18 -41 32 -39 32 5 63 -3 63 -17 0 -11 6 -14 22 -9 17 6 20 4 15 -9 -5
-12 -2 -17 11 -15 37 3 50 -2 48 -18 -1 -15 7 -18 40 -18 49 0 76 -20 72 -51
-2 -13 2 -24 7 -25 12 -2 55 -51 55 -63 0 -5 6 -4 13 2 9 8 12 4 14 -15 1 -17
-2 -21 -7 -13 -6 9 -10 8 -18 -5 -8 -15 -3 -24 23 -49 18 -17 36 -42 40 -56 5
-19 4 -21 -4 -10 -6 9 -11 10 -11 3 0 -6 -10 -9 -22 -7 -19 3 -18 2 5 -9 15
-7 24 -16 21 -20 -4 -4 -1 -13 6 -22 10 -12 10 -15 -4 -15 -10 0 -14 -5 -10
-11 3 -6 1 -15 -6 -19 -26 -16 15 -40 69 -40 28 0 51 -4 51 -10 0 -5 -12 -10
-26 -10 -14 0 -23 -4 -19 -10 3 -5 18 -10 32 -10 15 0 24 -3 21 -6 -11 -10 31
-44 55 -45 15 -1 17 -3 6 -6 -18 -4 -33 -56 -18 -61 5 -2 9 -12 9 -22 0 -24
18 -36 33 -21 17 17 27 13 27 -9 0 -14 6 -20 17 -18 13 2 17 -5 19 -30 2 -39
-8 -47 -38 -31 -19 10 -25 8 -45 -15 -28 -33 -30 -51 -4 -37 10 6 38 10 62 9
24 -1 59 2 77 6 22 6 32 5 32 -3 0 -15 40 -54 48 -47 3 3 14 -1 24 -11 10 -9
32 -16 49 -16 28 0 29 -2 23 -31 -8 -37 -13 -44 -22 -31 -11 16 -61 39 -69 32
-3 -4 6 -18 20 -31 58 -54 13 -93 -47 -40 -26 23 -28 29 -17 46 14 23 5 40
-10 18 -8 -11 -12 -12 -16 -2 -9 23 -23 12 -23 -18 0 -23 4 -30 20 -30 22 0
29 -40 8 -40 -8 0 -4 -7 6 -15 16 -12 17 -18 8 -27 -9 -9 -15 -8 -27 8 -14 18
-14 16 -9 -23 5 -31 3 -43 -6 -43 -17 0 -39 30 -40 53 0 10 -8 17 -20 17 -13
0 -18 -5 -14 -15 4 -8 10 -15 16 -15 5 0 6 -5 2 -11 -3 -6 -2 -14 4 -18 15 -9
19 -43 5 -48 -8 -3 -15 10 -19 36 -3 22 -13 42 -20 45 -8 3 -14 13 -14 23 0
14 -2 15 -9 4 -5 -7 -14 -10 -20 -7 -7 5 -11 -4 -11 -26 -1 -30 -2 -31 -14
-15 -18 23 -22 22 -35 -13 -5 -16 -15 -30 -20 -30 -6 0 -11 -11 -11 -25 0 -14
-9 -33 -20 -42 -22 -19 -27 -49 -9 -55 7 -2 13 -17 15 -33 2 -16 10 -35 19
-41 19 -14 20 -34 0 -34 -8 0 -15 -4 -15 -10 0 -5 15 -10 33 -10 49 -1 110
-33 145 -78 25 -31 33 -53 38 -101 16 -151 -113 -260 -258 -217 -158 46 -200
243 -74 354 20 17 41 32 46 32 16 0 11 27 -6 34 -9 3 -14 15 -12 27 3 18 -3
22 -34 25 -21 1 -38 -1 -38 -6 0 -6 -8 -10 -17 -10 -14 0 -18 8 -18 37 0 32
-4 39 -22 41 -26 4 -31 -15 -8 -24 8 -4 15 -10 15 -15 0 -5 -7 -9 -15 -9 -8 0
-15 5 -15 10 0 21 -22 8 -41 -25 -12 -19 -27 -35 -34 -35 -17 0 -4 -53 19 -75
36 -37 26 -111 -19 -135 l-25 -14 32 -13 c44 -18 68 -51 68 -93 0 -76 -52
-110 -170 -110 l-80 0 0 200 0 200 40 0 c36 0 40 2 36 23 -3 19 -9 22 -45 21
-34 -1 -41 2 -41 19 0 15 -3 17 -14 8 -21 -18 -76 -10 -76 11 0 20 -28 14 -47
-10 -11 -14 -13 -12 -13 11 0 21 -6 28 -27 33 -16 3 -35 8 -43 10 -9 2 -8 -2
4 -11 11 -8 25 -15 32 -15 13 0 8 -36 -8 -57 -5 -6 -8 -20 -7 -30 2 -10 -20
-52 -50 -93 -50 -71 -52 -77 -47 -122 4 -25 20 -91 36 -145 16 -54 30 -101 30
-105 0 -5 -70 -8 -156 -8 l-155 0 26 34 c23 30 27 49 35 151 6 64 12 126 16
139 4 18 -5 37 -40 80 -46 56 -46 56 -20 56 26 0 25 1 -17 40 -51 46 -55 47
-62 20 -3 -11 -13 -20 -24 -19 -11 0 -13 3 -5 6 10 4 10 8 1 19 -17 20 -52 17
-72 -6 -19 -22 -38 -27 -34 -7 1 8 -16 13 -56 15 -74 4 -137 -21 -137 -54 0
-12 -6 -24 -12 -27 -19 -6 -48 11 -48 29 0 8 -4 12 -10 9 -5 -3 -10 1 -10 9 0
18 -36 40 -50 31 -16 -10 -12 -55 5 -55 22 0 18 -16 -7 -34 -24 -17 -48 -6
-48 23 0 9 -8 25 -16 36 -14 19 -16 19 -25 3 -6 -10 -18 -18 -27 -18 -15 1
-15 2 1 15 27 20 19 45 -12 34 -19 -8 -23 -15 -19 -43 3 -27 0 -36 -14 -39
-11 -3 -18 0 -18 10 0 10 -6 13 -16 9 -9 -3 -29 -6 -46 -6 -24 0 -28 -3 -20
-13 12 -15 4 -31 -19 -39 -11 -5 -15 -15 -13 -35 2 -15 1 -20 -2 -10 -3 9 -10
15 -15 12 -5 -4 -9 5 -9 19 0 26 -25 37 -32 15 -2 -7 -13 -9 -26 -5 -27 9 -29
23 -4 30 10 4 24 22 31 41 7 19 16 35 20 35 4 0 21 11 37 25 28 25 28 26 10
40 -23 17 -40 20 -31 5 12 -19 -6 -31 -21 -15 -14 13 -14 17 -1 30 8 7 26 17
41 21 21 5 26 3 27 -12 0 -11 5 -4 10 15 6 18 18 35 28 38 24 6 41 37 34 62
-6 25 -20 27 -43 6 -15 -13 -20 -13 -49 1 -38 19 -29 38 19 36 16 0 30 4 30 9
0 5 -4 9 -10 9 -5 0 -10 5 -10 11 0 5 4 8 9 4 5 -3 12 -1 16 5 3 5 1 10 -4 10
-19 0 -12 40 7 41 16 1 16 2 0 6 -10 2 -18 9 -18 15 0 6 9 8 20 5 11 -3 18 -1
14 4 -3 5 0 9 7 9 7 0 10 3 7 6 -4 3 3 15 14 26 20 20 21 20 51 3 22 -13 32
-15 35 -7 2 7 17 12 34 12 39 0 32 20 -13 36 -19 7 -27 13 -18 13 22 1 34 31
13 31 -8 0 -12 5 -9 10 3 6 2 10 -4 10 -5 0 -11 -4 -13 -9 -1 -6 -23 -12 -48
-15 -28 -3 -40 -2 -31 3 12 8 12 12 -2 25 -20 20 -37 21 -37 1 0 -8 -7 -15
-15 -15 -8 0 -15 7 -15 15 0 8 -5 15 -11 15 -5 0 -8 -4 -5 -9 4 -5 2 -21 -4
-35 -10 -27 -2 -34 17 -15 7 7 12 6 16 -5 4 -9 2 -16 -3 -16 -6 0 -10 -22 -10
-50 0 -40 -3 -48 -15 -44 -8 4 -17 -1 -21 -10 -3 -9 -15 -16 -25 -16 -25 0
-35 -26 -19 -46 10 -11 10 -18 2 -26 -7 -7 -12 -20 -12 -31 0 -10 -5 -15 -11
-11 -6 3 -9 15 -6 25 3 10 1 22 -4 25 -5 3 -9 -2 -9 -10 0 -8 -10 -16 -22 -18
-15 -2 -24 -13 -30 -35 -10 -40 -31 -44 -26 -5 3 24 0 27 -22 24 -14 -2 -26
-8 -28 -13 -5 -14 -23 -11 -21 4 3 25 -1 38 -11 32 -5 -3 -10 1 -10 10 0 9 -4
14 -9 11 -11 -7 -61 16 -61 29 0 6 14 16 30 23 17 8 30 18 30 24 0 6 18 28 40
51 41 40 46 56 13 42 -10 -5 -21 -9 -25 -9 -3 -1 -10 -4 -14 -8 -14 -15 -21
-8 -22 20 0 26 3 29 31 29 17 0 33 5 35 11 2 7 12 12 23 12 12 0 21 9 25 28 4
15 14 35 22 45 11 13 12 17 2 17 -7 0 -19 -8 -26 -17 -21 -28 -16 0 11 60 21
49 29 57 59 62 19 4 39 4 44 1 5 -3 12 3 15 14 6 24 -10 37 -26 21 -19 -19
-39 -13 -32 9 5 14 2 20 -9 20 -14 0 -14 3 -4 20 9 15 20 19 36 15 15 -4 22
-1 22 10 0 8 8 15 18 15 21 1 52 23 52 39 0 7 5 9 10 6 6 -3 10 -1 10 5 0 6 5
8 10 5 6 -3 10 1 10 10 0 8 7 18 15 22 24 8 77 64 69 72 -4 3 -9 1 -11 -6 -2
-7 -11 -9 -19 -6 -9 3 -14 -2 -14 -15 0 -13 -10 -24 -30 -31 -16 -5 -30 -16
-30 -23 0 -10 -2 -10 -8 -1 -12 19 -2 82 12 77 13 -5 66 38 66 55 0 6 11 11
25 11 14 0 25 2 25 4 0 2 3 11 6 20 5 12 0 16 -20 16 -14 0 -26 5 -26 10 0 6
7 10 15 10 9 0 15 9 15 22 0 17 3 19 12 10 20 -20 36 -13 55 26 12 25 25 37
41 38 12 1 22 -2 22 -6 0 -4 11 -5 25 -2 14 2 25 11 25 18 0 8 4 14 9 14 5 0
12 9 16 19 8 26 61 92 68 85 3 -3 19 8 35 25 22 23 40 32 70 35 24 2 43 -1 46
-8 3 -8 7 -8 13 0 4 6 17 10 27 8 10 -1 35 4 55 12 44 17 101 25 101 13 0 -5
8 -9 19 -9 21 0 45 -23 34 -33 -3 -4 -1 -7 5 -7 7 0 12 4 12 9 0 5 30 9 68 9
90 -1 115 7 110 37 -6 27 10 51 37 58 37 9 85 7 85 -4z m-484 -1586 c20 -43
47 -102 60 -131 13 -29 24 -55 24 -57 0 -2 15 -36 34 -75 l34 -70 -34 0 c-19
0 -34 4 -34 10 0 5 -9 34 -21 65 l-20 55 -93 0 -92 0 -16 -33 c-8 -17 -19 -47
-22 -65 -6 -26 -13 -32 -33 -32 -13 0 -23 3 -21 8 2 4 14 30 27 57 13 28 40
87 62 133 21 46 39 85 39 88 0 18 57 124 67 124 2 0 20 -35 39 -77z m609 -133
l0 -200 -27 0 -28 0 0 200 0 200 28 0 27 0 0 -200z m1039 186 c47 -20 66 -75
41 -122 -9 -18 -27 -35 -39 -38 -19 -6 -18 -7 12 -23 86 -43 97 -136 20 -183
-26 -16 -51 -20 -113 -20 l-80 0 0 200 0 200 63 0 c34 0 78 -6 96 -14z m442
-11 c68 -34 97 -81 102 -167 4 -59 1 -73 -22 -113 -48 -82 -137 -119 -225 -95
-101 27 -151 92 -152 198 0 31 4 69 9 83 15 38 62 90 97 105 50 22 134 17 191
-11z m-2456 -694 c0 -5 -7 -12 -16 -15 -24 -9 -28 -7 -14 9 14 17 30 20 30 6z
m-132 -91 c-3 -60 -3 -60 25 -60 15 0 27 -4 27 -10 0 -18 -68 -12 -72 6 -6 32
4 124 14 124 6 0 8 -25 6 -60z m112 -10 c0 -38 -3 -70 -8 -70 -4 0 -7 31 -7
70 0 38 3 70 8 70 4 0 7 -31 7 -70z m117 7 c13 -22 27 -36 31 -33 3 4 5 27 3
51 -1 27 2 45 8 45 7 0 11 -27 11 -70 0 -38 -4 -70 -8 -70 -4 0 -26 23 -47 52
l-40 52 -6 -54 c-6 -55 -6 -54 -7 19 -2 67 -1 72 14 60 9 -8 28 -31 41 -52z
m202 54 c8 -5 -2 -8 -28 -7 -47 1 -61 -12 -61 -60 0 -23 6 -34 25 -42 14 -6
32 -9 40 -6 18 7 20 40 3 47 -7 3 -3 6 10 6 18 1 22 -4 22 -28 0 -17 -6 -31
-16 -35 -52 -20 -104 12 -104 64 0 53 64 89 109 61z m73 -48 c3 -57 3 -58 33
-58 30 0 30 1 33 58 4 71 22 76 22 5 0 -56 -19 -88 -53 -88 -38 0 -57 29 -57
87 0 71 18 68 22 -4z m216 -9 c12 -37 20 -69 17 -73 -3 -3 -8 5 -12 17 -7 30
-69 32 -78 2 -3 -11 -11 -20 -17 -20 -5 0 -8 3 -6 8 2 4 14 35 27 70 13 34 29
62 35 62 7 0 22 -30 34 -66z m132 55 c0 -6 -9 -9 -20 -6 -10 3 -24 -1 -30 -8
-11 -14 -7 -18 35 -40 24 -13 31 -41 15 -60 -14 -17 -48 -19 -70 -4 -12 8 -10
10 10 8 14 -1 31 -1 38 0 16 1 16 41 -1 41 -29 0 -50 26 -43 53 5 22 12 27 36
27 17 0 30 -5 30 -11z m158 4 c-33 -4 -38 -8 -38 -29 0 -19 5 -24 28 -25 l27
-2 -27 -4 c-23 -4 -28 -9 -28 -33 0 -26 4 -29 38 -33 34 -3 33 -4 -10 -5 l-48
-2 0 70 0 70 48 -2 c43 -1 44 -2 10 -5z m142 -53 l0 -60 30 0 c17 0 30 -5 30
-11 0 -6 -16 -9 -37 -7 l-37 3 -3 68 c-3 43 0 67 6 67 7 0 11 -25 11 -60z
m120 -10 c0 -40 -4 -70 -10 -70 -6 0 -10 30 -10 70 0 40 4 70 10 70 6 0 10
-30 10 -70z m128 63 c-27 -4 -28 -6 -28 -69 0 -35 -3 -64 -8 -64 -4 0 -7 28
-7 62 0 58 -2 62 -25 69 -16 5 -5 7 35 7 33 -1 48 -3 33 -5z m110 0 c-33 -4
-38 -8 -38 -29 0 -20 5 -24 33 -26 l32 -1 -32 -4 c-29 -4 -33 -8 -33 -35 0
-28 2 -30 30 -26 17 3 30 1 30 -4 0 -4 -18 -8 -40 -8 l-39 0 0 70 1 70 46 -2
c44 -1 45 -2 10 -5z m150 -5 c16 -16 15 -43 -3 -58 -13 -11 -12 -16 6 -41 11
-16 16 -29 10 -29 -5 0 -19 14 -31 30 -12 17 -26 30 -31 30 -5 0 -9 -13 -9
-30 0 -16 -4 -30 -10 -30 -6 0 -10 30 -10 70 l0 70 33 0 c18 0 38 -5 45 -12z
m122 -3 c0 -8 4 -23 9 -33 13 -23 41 -84 41 -89 0 -12 -20 1 -25 17 -5 15 -15
20 -40 20 -24 0 -34 -5 -38 -20 -3 -11 -10 -20 -15 -20 -5 0 2 32 16 70 24 63
52 93 52 55z m158 8 c-27 -4 -28 -6 -28 -69 0 -36 -4 -64 -10 -64 -6 0 -10 28
-10 64 0 59 -2 65 -22 69 -13 2 4 4 37 4 33 0 48 -2 33 -4z m72 -54 l0 -60 33
3 c32 3 32 4 35 61 2 31 7 57 12 57 16 0 11 -94 -6 -118 -18 -27 -61 -29 -80
-4 -16 20 -19 122 -4 122 6 0 10 -27 10 -61z m204 55 c19 -7 22 -60 4 -67 -9
-3 -6 -13 10 -36 15 -21 18 -31 9 -31 -7 0 -21 14 -30 30 -10 17 -25 30 -33
30 -12 0 -14 -7 -9 -30 4 -19 3 -30 -4 -30 -7 0 -11 27 -11 70 0 67 1 70 24
70 13 0 31 -3 40 -6z m150 -59 c29 -73 30 -75 17 -75 -5 0 -11 9 -14 20 -4 14
-14 20 -35 20 -22 0 -32 -6 -37 -20 -3 -11 -11 -20 -16 -20 -12 0 -12 27 1 35
6 3 10 12 10 19 0 22 29 86 39 86 5 0 21 -29 35 -65z m130 56 c4 -5 -2 -7 -11
-5 -24 6 -45 -9 -38 -27 3 -8 18 -20 34 -26 24 -9 28 -15 24 -38 -3 -14 -12
-29 -19 -32 -19 -7 -64 5 -64 18 0 6 7 6 21 -1 11 -7 27 -9 35 -6 24 9 15 37
-16 49 -35 13 -40 24 -29 55 9 22 52 32 63 13z"/>
<path d="M2210 3730 c0 -11 6 -20 14 -20 8 0 16 -5 18 -11 3 -8 15 -6 38 6
l34 17 -33 14 c-48 20 -71 18 -71 -6z"/>
<path d="M2328 3703 c12 -2 22 -9 22 -14 0 -6 -4 -7 -10 -4 -5 3 -10 2 -10 -3
0 -16 25 -20 43 -7 30 22 20 35 -25 34 -24 -1 -33 -4 -20 -6z"/>
<path d="M2417 3703 c-12 -12 -7 -22 8 -17 8 4 15 10 15 15 0 11 -14 12 -23 2z"/>
<path d="M2501 3681 c-7 -5 -11 -15 -9 -22 3 -10 8 -7 17 9 13 24 12 26 -8 13z"/>
<path d="M2542 3654 c-7 -8 -10 -23 -7 -34 5 -15 3 -18 -9 -14 -9 3 -16 9 -16
13 0 4 -9 7 -20 7 -22 0 -28 -30 -8 -42 7 -5 8 -3 3 6 -6 10 -2 12 16 7 13 -4
33 -7 44 -7 17 0 18 -2 5 -10 -11 -7 -2 -8 30 -4 25 4 51 14 58 23 11 13 10
19 -9 34 -26 21 -48 22 -55 2 -4 -8 -11 -15 -17 -15 -7 0 -7 4 1 12 13 13 16
38 5 38 -5 -1 -14 -7 -21 -16z"/>
<path d="M2370 3641 c0 -6 7 -11 15 -11 8 0 15 -4 15 -8 0 -9 47 -9 55 0 3 3
-7 9 -22 12 -15 4 -36 9 -45 12 -10 3 -18 1 -18 -5z"/>
<path d="M2080 3610 c0 -5 7 -10 15 -10 8 0 15 5 15 10 0 6 -7 10 -15 10 -8 0
-15 -4 -15 -10z"/>
<path d="M1526 3575 c-6 -16 11 -20 32 -6 11 7 10 10 -3 15 -22 8 -22 8 -29
-9z"/>
<path d="M1615 3569 c-4 -6 -13 -8 -21 -5 -8 3 -14 1 -14 -4 0 -15 32 -11 54
5 17 13 17 15 4 15 -9 0 -20 -5 -23 -11z"/>
<path d="M2086 3524 c-4 -9 -4 -19 -2 -21 8 -8 26 8 26 23 0 19 -16 18 -24 -2z"/>
<path d="M2326 3531 c-7 -10 22 -37 30 -28 4 3 -1 13 -9 22 -9 8 -18 11 -21 6z"/>
<path d="M2686 3510 c-15 -5 -16 -9 -7 -14 7 -5 18 -3 24 3 14 14 6 20 -17 11z"/>
<path d="M2715 3491 c-3 -5 5 -11 17 -13 12 -2 23 -9 26 -16 3 -11 0 -12 -16
-3 -11 6 -31 10 -44 10 -20 -1 -21 -2 -3 -6 11 -3 24 -9 30 -14 5 -5 20 -9 33
-9 23 0 23 0 5 30 -17 30 -37 38 -48 21z"/>
<path d="M2520 3481 c0 -10 30 -24 37 -17 3 3 2 9 -2 15 -8 13 -35 15 -35 2z"/>
<path d="M2065 3471 c-40 -8 -57 -20 -77 -57 -19 -34 -25 -118 -13 -178 6 -29
5 -38 -4 -35 -7 3 -37 -18 -67 -46 -60 -56 -98 -133 -110 -226 -4 -30 -12 -57
-17 -61 -7 -4 -7 -11 0 -20 6 -7 13 -40 16 -74 4 -47 10 -67 29 -86 14 -13 27
-30 29 -37 5 -15 69 -30 124 -31 40 0 66 13 119 60 76 67 92 80 99 80 4 0 7
17 7 38 0 21 6 47 14 57 13 18 15 18 49 -10 19 -17 49 -41 68 -55 53 -41 59
-50 59 -90 0 -50 25 -67 61 -42 13 9 53 26 89 38 44 14 66 26 68 39 3 15 -1
17 -23 11 -15 -4 -50 -2 -79 4 -51 11 -51 12 -98 96 -27 46 -48 89 -48 94 0 6
15 10 34 10 28 0 36 5 46 30 7 17 36 47 66 68 48 33 52 39 47 67 -3 16 -7 32
-9 34 -2 2 -29 -20 -61 -48 -31 -28 -61 -51 -67 -51 -5 0 4 10 20 23 47 34 65
55 55 62 -6 3 -26 -9 -45 -26 -20 -17 -40 -28 -46 -24 -5 3 -10 1 -10 -4 0
-13 -30 -45 -56 -59 -15 -8 -25 -4 -52 19 -45 40 -83 37 -135 -12 -11 -10 -23
-16 -27 -14 -4 3 -11 29 -15 60 -3 30 -11 57 -16 60 -5 4 -9 11 -9 17 0 6 11
3 25 -6 13 -9 29 -16 35 -16 21 0 70 58 70 82 0 13 7 33 15 44 8 10 15 30 15
44 0 18 3 21 9 12 11 -18 21 7 21 52 0 24 -9 43 -34 68 -43 45 -91 56 -171 39z"/>
<path d="M1510 3435 c0 -9 6 -12 15 -9 8 4 15 10 15 15 0 5 -7 9 -15 9 -8 0
-15 -7 -15 -15z"/>
<path d="M1724 3435 c-10 -8 -14 -15 -8 -15 5 0 19 7 30 15 10 8 14 15 8 15
-5 0 -19 -7 -30 -15z"/>
<path d="M1390 3420 c0 -5 7 -10 15 -10 8 0 15 5 15 10 0 6 -7 10 -15 10 -8 0
-15 -4 -15 -10z"/>
<path d="M2505 3421 c-7 -12 12 -24 25 -16 11 7 4 25 -10 25 -5 0 -11 -4 -15
-9z"/>
<path d="M2310 3411 c0 -10 30 -24 37 -17 3 3 2 9 -2 15 -8 13 -35 15 -35 2z"/>
<path d="M2740 3411 c0 -9 27 -41 36 -41 13 0 1 31 -16 40 -12 6 -20 7 -20 1z"/>
<path d="M1570 3390 c0 -6 7 -10 15 -10 8 0 20 -10 26 -22 8 -14 14 -18 16
-11 3 7 -1 19 -9 26 -18 18 -48 28 -48 17z"/>
<path d="M1873 3363 c-16 -6 -17 -33 -3 -33 11 0 26 28 19 34 -2 2 -10 1 -16
-1z"/>
<path d="M1717 3353 c-5 -7 -5 -17 -2 -23 8 -13 35 -13 35 1 0 5 -4 8 -9 4 -5
-3 -11 3 -13 12 -3 13 -6 15 -11 6z"/>
<path d="M1267 3256 c-3 -8 -2 -18 3 -21 13 -8 20 9 11 24 -6 10 -10 9 -14 -3z"/>
<path d="M1477 3255 c-11 -8 -17 -21 -14 -32 4 -16 6 -15 12 5 4 12 14 22 21
22 8 0 14 5 14 10 0 14 -11 12 -33 -5z"/>
<path d="M1816 3252 c-3 -5 -2 -18 1 -30 5 -21 6 -21 18 -5 7 9 11 23 8 30 -6
15 -19 17 -27 5z"/>
<path d="M2645 3240 c3 -5 15 -10 26 -10 10 0 19 5 19 10 0 6 -12 10 -26 10
-14 0 -23 -4 -19 -10z"/>
<path d="M1460 3161 c0 -17 18 -21 24 -6 3 9 0 15 -9 15 -8 0 -15 -4 -15 -9z"/>
<path d="M1683 3020 c4 -14 7 -28 7 -32 0 -5 6 -8 14 -8 18 0 10 34 -12 52
-13 11 -15 10 -9 -12z"/>
<path d="M1302 3019 c2 -7 10 -15 17 -17 8 -3 12 1 9 9 -2 7 -10 15 -17 17 -8
3 -12 -1 -9 -9z"/>
<path d="M1725 3001 c3 -6 10 -9 15 -6 4 3 11 0 13 -5 3 -6 4 -5 3 2 -1 7 -11
15 -21 16 -11 3 -15 0 -10 -7z"/>
<path d="M1578 2972 c-16 -3 -16 -5 -4 -18 16 -15 46 -19 46 -5 0 14 -24 28
-42 23z"/>
<path d="M2538 2952 c-28 -6 -21 -29 9 -35 32 -6 43 -1 43 17 0 15 -26 24 -52
18z"/>
<path d="M1554 2933 c4 -9 1 -20 -5 -24 -8 -4 -4 -11 11 -19 30 -16 33 -9 14
28 -16 33 -31 44 -20 15z"/>
<path d="M2825 2919 c-4 -6 -13 -8 -21 -5 -23 9 -46 -4 -34 -19 9 -11 4 -13
-25 -11 -40 4 -53 -8 -35 -29 11 -13 5 -15 -36 -15 l-49 0 35 -17 c19 -10 36
-20 38 -24 2 -4 11 -5 21 -2 10 3 22 0 25 -6 11 -17 57 -13 78 6 10 9 18 11
18 5 0 -6 -9 -16 -20 -22 -27 -15 -25 -30 4 -30 14 0 28 -4 31 -10 9 -15 45
-12 45 4 0 8 -7 16 -15 20 -8 3 -15 10 -15 16 0 8 6 8 20 0 17 -9 20 -8 20 10
0 11 0 22 0 25 0 3 -3 5 -6 4 -16 -2 -22 27 -8 42 13 14 13 18 0 28 -8 7 -12
19 -9 27 6 17 -9 18 -25 2 -9 -9 -12 -9 -12 0 0 15 -17 16 -25 1z"/>
<path d="M1450 2910 c0 -5 5 -10 10 -10 6 0 10 -6 10 -13 0 -19 37 -39 46 -25
4 7 2 14 -5 16 -8 3 -22 13 -32 23 -21 21 -29 24 -29 9z"/>
<path d="M1265 2900 c3 -5 15 -10 26 -10 11 0 17 5 14 10 -3 6 -15 10 -26 10
-11 0 -17 -4 -14 -10z"/>
<path d="M1416 2895 c-3 -8 -13 -15 -21 -15 -26 0 -13 -35 14 -38 19 -3 22 0
16 17 -7 23 4 28 23 9 9 -9 12 -9 12 0 0 7 -4 12 -10 12 -5 0 -10 7 -10 15 0
8 -4 15 -9 15 -5 0 -11 -7 -15 -15z"/>
<path d="M1701 2879 c9 -17 13 -19 19 -8 11 16 4 29 -16 29 -12 0 -13 -4 -3
-21z"/>
<path d="M2450 2871 c-24 -7 -23 -8 10 -14 27 -6 32 -10 20 -17 -13 -8 -12
-10 3 -10 12 0 17 8 17 25 0 26 -7 28 -50 16z"/>
<path d="M1555 2840 c3 -5 13 -10 21 -10 8 0 12 5 9 10 -3 6 -13 10 -21 10 -8
0 -12 -4 -9 -10z"/>
<path d="M3040 2831 c0 -21 17 -37 27 -27 3 3 1 12 -5 19 -7 8 -9 17 -5 20 3
4 1 7 -5 7 -7 0 -12 -9 -12 -19z"/>
<path d="M1096 2775 c-4 -10 1 -15 14 -15 11 0 20 7 20 15 0 8 -6 15 -14 15
-8 0 -16 -7 -20 -15z"/>
<path d="M1636 2783 c-38 -10 -46 -27 -22 -50 30 -29 62 -37 70 -18 3 9 16 16
28 15 40 -4 58 0 58 11 0 5 -5 7 -11 3 -7 -4 -19 2 -28 14 -17 21 -63 33 -95
25z"/>
<path d="M2960 2776 c0 -6 11 -13 25 -14 14 -1 25 2 25 7 0 5 -11 11 -25 13
-15 3 -25 1 -25 -6z"/>
<path d="M3013 2753 c-10 -4 -9 -9 3 -20 18 -18 24 -15 15 8 -3 9 -12 14 -18
12z"/>
<path d="M1244 2739 c-3 -6 -1 -16 5 -22 8 -8 11 -5 11 11 0 24 -5 28 -16 11z"/>
<path d="M2635 2694 c-17 -17 -17 -19 -2 -22 9 -2 24 -2 33 0 13 3 13 6 1 22
-13 18 -14 18 -32 0z"/>
<path d="M1420 2670 c0 -5 7 -10 15 -10 8 0 15 5 15 10 0 6 -7 10 -15 10 -8 0
-15 -4 -15 -10z"/>
<path d="M1395 2630 c-11 -4 -24 -5 -30 -3 -5 2 -1 -3 9 -11 20 -16 56 -22 56
-8 -1 19 -16 29 -35 22z"/>
<path d="M2149 2639 c-9 -28 -4 -49 12 -49 27 0 31 15 9 35 -11 10 -21 16 -21
14z"/>
<path d="M2665 2580 c-2 -3 5 -12 15 -20 10 -8 17 -17 14 -22 -3 -4 0 -8 5 -8
6 0 11 7 11 16 0 14 3 14 15 4 12 -10 15 -10 15 3 0 21 -64 45 -75 27z"/>
<path d="M2750 2561 c0 -11 9 -25 20 -31 11 -6 20 -17 20 -25 0 -8 4 -15 9
-15 5 0 7 9 4 20 -3 11 0 20 6 20 6 0 11 5 11 10 0 6 -6 10 -12 9 -26 -3 -38
1 -35 12 1 6 -4 14 -10 16 -8 3 -13 -4 -13 -16z"/>
<path d="M2910 2551 c0 -19 4 -21 23 -15 30 9 33 12 19 26 -9 9 -12 9 -12 -1
0 -11 -3 -11 -15 -1 -13 10 -15 9 -15 -9z"/>
<path d="M1900 2550 c0 -5 7 -10 15 -10 8 0 15 5 15 10 0 6 -7 10 -15 10 -8 0
-15 -4 -15 -10z"/>
<path d="M1220 2529 c0 -6 -7 -17 -15 -26 -9 -8 -13 -18 -9 -22 4 -3 9 0 11 7
3 6 11 12 19 12 8 0 14 9 14 20 0 11 -4 20 -10 20 -5 0 -10 -5 -10 -11z"/>
<path d="M1312 2516 c-42 -15 -32 -26 15 -16 41 10 68 30 38 29 -11 0 -35 -6
-53 -13z"/>
<path d="M1220 2466 c0 -13 -6 -27 -12 -29 -8 -3 -6 -6 5 -6 9 -1 17 5 17 13
0 8 10 22 22 30 l22 16 -27 0 c-22 0 -27 -5 -27 -24z"/>
<path d="M2800 2467 c0 -8 16 -18 35 -24 40 -13 44 -8 13 18 -25 22 -48 25
-48 6z"/>
<path d="M1747 2463 c-10 -9 13 -33 32 -33 9 0 22 -5 29 -12 8 -8 15 -8 26 1
10 8 16 9 21 1 9 -15 35 -12 35 4 0 7 -7 19 -15 26 -12 10 -18 10 -31 -1 -14
-11 -18 -10 -30 6 -14 18 -14 18 -15 -1 0 -10 -3 -13 -6 -6 -2 6 -9 10 -14 6
-5 -3 -9 0 -9 5 0 12 -13 15 -23 4z"/>
<path d="M2180 2430 c-14 -4 -21 -8 -16 -9 5 -1 3 -7 -3 -15 -15 -18 5 -105
25 -113 37 -14 64 68 39 117 -9 17 -17 30 -18 29 -1 -1 -13 -5 -27 -9z"/>
<path d="M1414 2409 c-19 -21 -19 -21 6 -18 14 2 26 12 28 22 5 23 -11 22 -34
-4z"/>
<path d="M2627 2416 c-4 -10 -5 -21 -2 -24 9 -9 17 6 13 25 -3 17 -4 17 -11
-1z"/>
<path d="M1173 2405 c-18 -8 -33 -21 -33 -29 0 -13 5 -13 38 -2 20 7 38 20 40
29 4 20 -3 21 -45 2z"/>
<path d="M2030 2383 c-8 -3 -23 -12 -32 -21 -12 -10 -18 -11 -18 -4 0 7 -7 12
-15 12 -25 0 -17 -27 10 -34 14 -4 43 -23 65 -42 22 -20 44 -33 50 -29 14 9
12 50 -4 90 -15 34 -25 39 -56 28z"/>
<path d="M2927 2334 c-8 -8 1 -24 14 -24 5 0 9 7 9 15 0 15 -12 20 -23 9z"/>
<path d="M2590 2321 c0 -11 26 -22 34 -14 3 3 3 10 0 14 -7 12 -34 11 -34 0z"/>
<path d="M2520 2210 l0 -80 33 0 c18 0 42 7 54 15 26 18 36 64 16 72 -8 3 -12
12 -9 20 11 27 -17 53 -56 53 l-38 0 0 -80z"/>
<path d="M2893 2270 c-48 -29 -67 -73 -65 -152 1 -76 25 -133 68 -167 40 -32
132 -30 172 4 43 36 55 74 50 158 -8 120 -55 177 -148 177 -27 0 -58 -8 -77
-20z"/>
<path d="M2520 2020 l0 -90 53 0 c62 0 86 21 94 81 5 33 1 42 -25 69 -25 25
-39 30 -76 30 l-46 0 0 -90z"/>
<path d="M1700 2226 c0 -8 -14 -44 -31 -80 -17 -37 -28 -70 -25 -73 9 -10 141
-6 141 4 0 4 -15 43 -34 86 -32 72 -51 95 -51 63z"/>
<path d="M3300 2210 l0 -80 38 0 c53 0 77 28 77 87 0 54 -20 73 -77 73 l-38 0
0 -80z"/>
<path d="M3300 2020 l0 -90 46 0 c60 0 81 13 95 58 9 30 8 45 -4 74 -15 36
-41 48 -108 48 l-29 0 0 -90z"/>
<path d="M3683 2275 c-55 -23 -75 -67 -71 -155 6 -126 57 -191 151 -192 92 -2
142 60 142 172 0 145 -104 227 -222 175z"/>
<path d="M1940 1507 c-15 -31 -10 -40 18 -35 19 3 19 6 7 33 l-12 30 -13 -28z"/>
<path d="M2870 1519 c0 -26 3 -30 22 -27 26 3 37 36 16 49 -25 17 -38 9 -38
-22z"/>
<path d="M3023 1505 c-11 -33 -10 -35 12 -35 23 0 23 2 13 33 -6 17 -12 33
-13 34 -1 2 -6 -13 -12 -32z"/>
<path d="M3434 1535 c-9 -23 3 -45 25 -45 23 0 35 28 20 46 -15 18 -38 18 -45
-1z"/>
<path d="M3586 1508 c-9 -35 -8 -38 14 -38 11 0 20 3 20 8 0 19 -13 52 -20 52
-4 0 -10 -10 -14 -22z"/>
</g>
</svg>
